<?xml version="1.0" encoding="UTF-8"?>
<svg version="1.1" xmlns="http://www.w3.org/2000/svg" width="512" height="512">
<path d="M0 0 C0.7326709 0.01474365 1.4653418 0.0294873 2.22021484 0.04467773 C11.26950108 0.45364548 17.9055984 4.10970299 24.03125 10.7265625 C30.1394375 18.62171974 31.33549528 26.84122924 30.5 36.625 C27.53965436 49.4468792 16.65465212 58.76391111 7.65625 67.6640625 C6.63591165 68.68065916 5.61602249 69.69770684 4.59655762 70.71517944 C1.94441756 73.35977389 -0.71367651 75.99830027 -3.37316895 78.63549805 C-6.09884187 81.34051419 -8.81868528 84.05137873 -11.5390625 86.76171875 C-16.85376927 92.05513625 -22.17479616 97.34214046 -27.5 102.625 C-26.96403702 102.81643082 -26.42807404 103.00786163 -25.87586975 103.20509338 C-23.40609965 104.09080897 -20.93940001 104.98479852 -18.47265625 105.87890625 C-17.62981079 106.17978149 -16.78696533 106.48065674 -15.9185791 106.79064941 C-4.13467328 111.07959216 6.0709021 117.3468718 15.5 125.625 C16.47839844 126.48222656 17.45679688 127.33945313 18.46484375 128.22265625 C23.10131544 132.36355514 27.46214512 136.54245997 31.57885742 141.20336914 C36.3259686 146.49745466 41.31181203 151.49884825 46.390625 156.47265625 C48.25304408 158.31270589 50.11500995 160.15321434 51.9765625 161.99414062 C54.87003708 164.85185811 57.7670741 167.7058153 60.67285156 170.55102539 C63.50641552 173.32636266 66.32353352 176.11809798 69.140625 178.91015625 C70.00528381 179.75103287 70.86994263 180.59190948 71.76080322 181.45826721 C78.84518717 188.51183382 84.82535086 196.30780455 85.5 206.625 C85.05964854 217.23604973 81.24756482 224.35214359 73.5625 231.5 C66.20544326 237.4966953 58.40739287 239.16740745 49.0625 238.43359375 C43.42781764 237.2566124 39.4874361 234.24851592 35.23046875 230.53125 C34.62810394 230.00964798 34.02573914 229.48804596 33.40512085 228.95063782 C25.44510187 221.95134582 18.05818867 214.36083417 10.625 206.8125 C8.44957355 204.60920211 6.2725652 202.40752377 4.09249878 200.20881653 C2.75164693 198.85596177 1.41346871 197.50044906 0.0786438 196.14164734 C-3.7108166 192.31193823 -7.61916369 188.69592495 -11.71563721 185.19577026 C-13.92058107 183.2547635 -15.93908046 181.17589154 -17.95996094 179.046875 C-29.25313394 167.20034431 -41.87564585 161.8020172 -58.23046875 161.15234375 C-74.55549571 160.95565668 -88.73911802 164.9185172 -100.74682617 176.40185547 C-102.60678021 178.25574735 -104.45415194 180.11776146 -106.29296875 181.9921875 C-107.29242706 182.99658633 -108.29271395 184.00016124 -109.29377747 185.00296021 C-111.37638875 187.09315552 -113.45242491 189.18957607 -115.52319336 191.29150391 C-118.15697714 193.96488351 -120.801432 196.62736623 -123.45023632 199.28585625 C-126.00548901 201.85115424 -128.55584499 204.42129659 -131.10546875 206.9921875 C-131.58101889 207.47113338 -132.05656902 207.95007927 -132.54652977 208.44353867 C-137.45256103 213.39184806 -142.22217253 218.38989344 -146.76582336 223.67214966 C-150.09506483 227.42119702 -153.68688036 230.9126256 -157.25 234.4375 C-158.06694336 235.25065674 -158.88388672 236.06381348 -159.72558594 236.90161133 C-163.18695042 240.3467734 -166.65428591 243.7859029 -170.12109375 247.22558594 C-172.66615188 249.75246508 -175.20813131 252.28241315 -177.75 254.8125 C-178.52311523 255.57731689 -179.29623047 256.34213379 -180.09277344 257.13012695 C-194.48595481 271.45885655 -203.64185699 284.71245168 -203.8125 305.5625 C-203.82671425 321.93889001 -199.18534562 335.93674935 -187.68554688 347.99121094 C-185.87593283 349.79339253 -184.05308444 351.58236102 -182.21875 353.359375 C-181.23543143 354.33077565 -180.25331907 355.30339863 -179.27233887 356.27716064 C-176.71475126 358.81028828 -174.14294508 361.32843604 -171.56707764 363.84295654 C-167.9413005 367.38767444 -164.3354743 370.95270349 -160.72766113 374.51568604 C-158.81510681 376.40441949 -156.89671363 378.28650325 -154.9744873 380.16546631 C-150.56986949 384.48872674 -146.34494213 388.86160202 -142.32998657 393.5473938 C-135.60996949 401.17671162 -128.24147641 408.274471 -121.08764648 415.49731445 C-118.99049216 417.61672105 -116.90354678 419.74544857 -114.82495117 421.88305664 C-112.28454194 424.49536823 -109.7265958 427.08931036 -107.15608406 429.67199516 C-105.73225792 431.11097417 -104.32579768 432.56707237 -102.92002869 434.0236969 C-92.01491504 444.89600935 -79.44571807 450.77528262 -63.97290039 451.00537109 C-37.68454436 450.95979273 -24.46248229 440.70557198 -6.484375 422.671875 C-4.06872186 420.24371882 -1.65831502 417.81043277 0.75 415.375 C14.49725989 401.47474994 14.49725989 401.47474994 20.73339844 396.18212891 C24.68101069 392.70260003 28.25040759 388.7957513 31.85546875 384.96679688 C38.2770971 378.36342433 45.10478322 374.56080867 54.4375 374.1875 C62.802486 374.27142963 69.33153984 377.03591066 75.6640625 382.48828125 C81.60662873 388.79751646 85.61471281 396.84127611 85.5 405.625 C84.43507275 419.58234432 74.51241881 427.99723189 65.0625 437.1875 C62.85160945 439.35156188 60.64510206 441.5200193 58.44140625 443.69140625 C57.90745743 444.21690063 57.37350861 444.74239502 56.82337952 445.28381348 C54.14971428 447.93143576 51.56378796 450.6073988 49.125 453.47265625 C44.04127895 459.43996351 38.44675241 464.94005538 32.92358398 470.49658203 C31.60752245 471.82412978 30.29592804 473.15612208 28.98901367 474.49267578 C18.00376771 485.72585505 6.71737269 495.88133784 -7.75 502.4375 C-8.53721436 502.80294922 -9.32442871 503.16839844 -10.13549805 503.54492188 C-22.63909271 509.14685069 -36.03787523 512.72694057 -49.765625 512.86328125 C-50.5578949 512.871353 -51.35016479 512.87942474 -52.16644287 512.88774109 C-53.844013 512.9015279 -55.52161054 512.91227404 -57.19921875 512.92016602 C-58.87834168 512.93157659 -60.55743157 512.95185046 -62.23632812 512.98168945 C-96.29547835 513.58507305 -124.03029272 500.28521701 -148.43054199 476.98007202 C-153.50413666 472.05334915 -158.51200603 467.061036 -163.50652981 462.05437827 C-165.51376037 460.04400435 -167.52564559 458.0383186 -169.53743672 456.0325101 C-174.29233138 451.29153996 -179.0395487 446.5429827 -183.78173828 441.78930664 C-188.62909876 436.93046275 -193.48911764 432.08455354 -198.35558677 427.24485463 C-202.57828191 423.04449703 -206.79297403 418.83622199 -211.0015986 414.62176639 C-213.49574874 412.12428991 -215.99251208 409.62960363 -218.49706268 407.14255333 C-247.14851151 378.67200861 -267.42531746 347.85982206 -267.875 306.125 C-267.43951433 261.56335604 -243.5130021 230.32697034 -213.27766883 200.09724236 C-210.67629018 197.49419514 -208.08064126 194.88544362 -205.48414612 192.27752686 C-199.8285187 186.59921933 -194.16559565 180.92822634 -188.50115657 175.25871086 C-184.95916779 171.7134494 -181.41881096 168.16656133 -177.87878609 164.61933899 C-168.05856886 154.77958901 -158.23680136 144.94139422 -148.40827084 135.1099472 C-147.78160398 134.48309278 -147.15493712 133.85623835 -146.50928036 133.21038833 C-145.23919871 131.93994047 -143.9691158 130.66949386 -142.69903164 129.39904851 C-142.06866126 128.76849531 -141.43829088 128.13794212 -140.78881836 127.48828125 C-140.15767042 126.85695276 -139.52652248 126.22562427 -138.87624884 125.57516462 C-128.63115128 115.32651907 -118.39787014 105.06616174 -108.16968005 94.80064505 C-97.64473026 84.23759561 -87.11042988 73.68394872 -76.56656367 63.13978052 C-70.65597844 57.22861162 -64.74938259 51.31357872 -58.85301018 45.38822937 C-53.83813474 40.34881958 -48.81470147 35.31813891 -43.78003328 30.2985 C-41.21443009 27.74005346 -38.65297059 25.1778014 -36.10235214 22.60440826 C-33.33270612 19.81026984 -30.54376831 17.03590269 -27.75279236 14.26306152 C-26.95676115 13.45383035 -26.16072995 12.64459918 -25.34057659 11.81084585 C-18.0815222 4.65885947 -10.44671455 -0.35132494 0 0 Z " fill="#272725" transform="translate(307.5,-0.625)"/>
<path d="M0 0 C20.13 0 40.26 0 61 0 C62.32 6.27 63.64 12.54 65 19 C66.87416539 23.77504692 66.87416539 23.77504692 70 27 C71.04587539 28.50379676 72.0677591 30.02441259 73.07226562 31.55615234 C77.0908533 37.36286698 81.80954766 42.17358466 86.84375 47.1015625 C88.26190676 48.50960716 89.68006107 49.91765428 91.09807587 51.3258419 C93.06270632 53.27308982 95.03424375 55.21327025 97.00579834 57.15350342 C100.45917519 60.55440463 103.90264786 63.96532145 107.34436035 67.37802124 C109.1697954 69.18667592 110.99831611 70.99222359 112.83044434 72.7940979 C117.11992052 77.03360892 121.22684232 81.33458905 125.15463257 85.90948486 C131.8879686 93.53731044 139.2531496 100.64404517 146.41235352 107.87231445 C148.50950784 109.99172105 150.59645322 112.12044857 152.67504883 114.25805664 C155.21545806 116.87036823 157.7734042 119.46431036 160.34391594 122.04699516 C161.76774208 123.48597417 163.17420232 124.94207237 164.57997131 126.3986969 C175.48508496 137.27100935 188.05428193 143.15028262 203.52709961 143.38037109 C229.81545564 143.33479273 243.03751771 133.08057198 261.015625 115.046875 C263.43127814 112.61871882 265.84168498 110.18543277 268.25 107.75 C281.99725989 93.84974994 281.99725989 93.84974994 288.23339844 88.55712891 C292.18101069 85.07760003 295.75040759 81.1707513 299.35546875 77.34179688 C305.7770971 70.73842433 312.60478322 66.93580867 321.9375 66.5625 C330.302486 66.64642963 336.83153984 69.41091066 343.1640625 74.86328125 C349.10662873 81.17251646 353.11471281 89.21627611 353 98 C351.93507275 111.95734432 342.01241881 120.37223189 332.5625 129.5625 C330.35160945 131.72656188 328.14510206 133.8950193 325.94140625 136.06640625 C325.40745743 136.59190063 324.87350861 137.11739502 324.32337952 137.65881348 C321.64971428 140.30643576 319.06378796 142.9823988 316.625 145.84765625 C311.54127895 151.81496351 305.94675241 157.31505538 300.42358398 162.87158203 C299.10752245 164.19912978 297.79592804 165.53112208 296.48901367 166.86767578 C285.50376771 178.10085505 274.21737269 188.25633784 259.75 194.8125 C258.96278564 195.17794922 258.17557129 195.54339844 257.36450195 195.91992188 C244.86090729 201.52185069 231.46212477 205.10194057 217.734375 205.23828125 C216.54597015 205.25038887 216.54597015 205.25038887 215.33355713 205.26274109 C213.655987 205.2765279 211.97838946 205.28727404 210.30078125 205.29516602 C208.62165832 205.30657659 206.94256843 205.32685046 205.26367188 205.35668945 C171.20452165 205.96007305 143.46970728 192.66021701 119.06945801 169.35507202 C113.99586334 164.42834915 108.98799397 159.436036 103.99347019 154.42937827 C101.98623963 152.41900435 99.97435441 150.4133186 97.96256328 148.4075101 C93.20766862 143.66653996 88.4604513 138.9179827 83.71826172 134.16430664 C78.87090124 129.30546275 74.01088236 124.45955354 69.14441323 119.61985463 C64.92171809 115.41949703 60.70702597 111.21122199 56.4984014 106.99676639 C54.00425126 104.49928991 51.50748792 102.00460363 49.00293732 99.51755333 C23.06121842 73.73962941 2.67702996 45.7847067 0 8 C0 5.36 0 2.72 0 0 Z " fill="#070706" transform="translate(40,307)"/>
<path d="M0 0 C0.91909602 -0.00367669 1.83819203 -0.00735338 2.78513944 -0.01114148 C5.87803597 -0.02219199 8.97089892 -0.0260245 12.06381226 -0.02983093 C14.27622586 -0.0360946 16.48863841 -0.04274131 18.7010498 -0.04974365 C24.72194193 -0.06716339 30.74282611 -0.07770829 36.7637372 -0.08594918 C40.5249206 -0.09109776 44.28610152 -0.09717359 48.04728317 -0.10346031 C58.46494278 -0.12033175 68.88260082 -0.13496599 79.30027199 -0.14220905 C82.00335313 -0.14411889 84.70643427 -0.14603923 87.40951538 -0.147995 C88.41724784 -0.14872061 88.41724784 -0.14872061 89.44533853 -0.14946087 C100.32228448 -0.1577567 111.19912029 -0.18308579 122.07601817 -0.21557567 C133.24858485 -0.24867598 144.42111173 -0.266328 155.59373128 -0.26985329 C161.86449812 -0.27220429 168.13509092 -0.28117136 174.40581131 -0.30631447 C180.3073422 -0.32959441 186.20858448 -0.33382852 192.11014938 -0.32355309 C194.27365834 -0.32305759 196.4371815 -0.32938211 198.60064697 -0.34310913 C201.5601184 -0.3608327 204.51855461 -0.35371917 207.47802734 -0.34057617 C208.32911973 -0.35154542 209.18021211 -0.36251466 210.05709517 -0.37381631 C218.77733511 -0.28066819 225.93471145 2.96191787 232.1199646 9.14717102 C238.13391076 17.06553346 240.19489893 25.26866056 239.1199646 35.14717102 C236.97286419 43.86414156 232.06609195 50.02315354 225.1199646 55.52217102 C218.8191425 58.93511633 212.90923513 59.44048154 205.91749573 59.41459656 C205.01202179 59.41912767 204.10654785 59.42365878 203.1736353 59.4283272 C200.15072845 59.44095008 197.12800225 59.43935219 194.10507202 59.43769836 C191.93309803 59.44368491 189.76112617 59.45049075 187.5891571 59.45805359 C181.69651473 59.47570752 175.80393045 59.48040871 169.91126418 59.48168516 C166.22777119 59.48310762 162.54429293 59.48737901 158.8608036 59.4926796 C146.00471688 59.51117761 133.14867161 59.51935046 120.29257202 59.51777649 C108.31774068 59.51657504 96.34314728 59.53767874 84.36835212 59.56926382 C74.07938388 59.59543311 63.7904745 59.60614351 53.50147325 59.60486567 C47.35985209 59.60435625 41.21839115 59.6100288 35.07680321 59.63122177 C29.29913764 59.65061506 23.52178494 59.6507209 17.7441082 59.63618851 C15.62778516 59.63410072 13.51144247 59.63879948 11.39515305 59.65090942 C-1.85246391 59.72178531 -12.91668215 59.77868935 -23.1222229 50.21357727 C-28.6906769 43.66755024 -31.22978379 36.05429777 -31.0909729 27.57295227 C-30.42829033 19.95210272 -26.98895323 12.79665899 -21.8800354 7.14717102 C-14.67005953 1.79022633 -8.91575169 -0.00190142 0 0 Z " fill="#9C9A99" transform="translate(230.88003540039063,276.8528289794922)"/>
<path d="M0 0 C2.51604411 2.41540234 4.8275426 4.94411965 7.09179688 7.59179688 C11.18235106 12.28074859 15.54744306 16.65609402 19.96875 21.03125 C20.8078894 21.86660278 21.64702881 22.70195557 22.51159668 23.56262207 C25.171969 26.21087086 27.83556013 28.85584406 30.5 31.5 C34.01337273 34.98662601 37.52331971 38.47664926 41.03125 41.96875 C42.22373352 43.14878601 42.22373352 43.14878601 43.44030762 44.35266113 C47.50709051 48.40171442 51.38015064 52.53357766 55.12387085 56.88119507 C61.8791027 64.51021067 69.2423696 71.63316117 76.41235352 78.87231445 C78.50950784 80.99172105 80.59645322 83.12044857 82.67504883 85.25805664 C85.21545806 87.87036823 87.7734042 90.46431036 90.34391594 93.04699516 C91.76774208 94.48597417 93.17420232 95.94207237 94.57997131 97.3986969 C105.48508496 108.27100935 118.05428193 114.15028262 133.52709961 114.38037109 C159.81545564 114.33479273 173.03751771 104.08057198 191.015625 86.046875 C193.43127814 83.61871882 195.84168498 81.18543277 198.25 78.75 C211.99725989 64.84974994 211.99725989 64.84974994 218.23339844 59.55712891 C222.18101069 56.07760003 225.75040759 52.1707513 229.35546875 48.34179688 C235.7770971 41.73842433 242.60478322 37.93580867 251.9375 37.5625 C260.302486 37.64642963 266.83153984 40.41091066 273.1640625 45.86328125 C279.10662873 52.17251646 283.11471281 60.21627611 283 69 C281.93507275 82.95734432 272.01241881 91.37223189 262.5625 100.5625 C260.35160945 102.72656188 258.14510206 104.8950193 255.94140625 107.06640625 C255.40745743 107.59190063 254.87350861 108.11739502 254.32337952 108.65881348 C251.64971428 111.30643576 249.06378796 113.9823988 246.625 116.84765625 C241.54127895 122.81496351 235.94675241 128.31505538 230.42358398 133.87158203 C229.10752245 135.19912978 227.79592804 136.53112208 226.48901367 137.86767578 C215.50376771 149.10085505 204.21737269 159.25633784 189.75 165.8125 C188.96278564 166.17794922 188.17557129 166.54339844 187.36450195 166.91992188 C174.86090729 172.52185069 161.46212477 176.10194057 147.734375 176.23828125 C146.54597015 176.25038887 146.54597015 176.25038887 145.33355713 176.26274109 C143.655987 176.2765279 141.97838946 176.28727404 140.30078125 176.29516602 C138.62165832 176.30657659 136.94256843 176.32685046 135.26367188 176.35668945 C107.96733719 176.84026466 82.03816738 168.81008878 61 151 C61.66 150.67 62.32 150.34 63 150 C63.928125 150.474375 64.85625 150.94875 65.8125 151.4375 C72.07949505 154.25764777 79.41955141 153.9648765 85.95703125 152.203125 C90.09724316 150.62705604 92.88835657 149.138623 96 146 C96.66 146 97.32 146 98 146 C98.37125 145.195625 98.37125 145.195625 98.75 144.375 C100 142 100 142 102 139.25 C106.45277478 132.01424099 107.14836285 123.33049657 106 115 C103.04107751 107.68103954 98.53261901 103.00229514 92.9362793 97.52978516 C92.02035004 96.61809067 91.10442078 95.70639618 90.16073608 94.76707458 C88.17869123 92.794238 86.19057926 90.8278099 84.19742393 88.86619949 C81.0382381 85.7566499 77.89412108 82.6321486 74.75190735 79.50546265 C68.64213453 73.42988646 62.51770699 67.36920963 56.39137268 61.31034088 C48.60338343 53.607056 40.82126212 45.89790968 33.05406886 38.17365301 C29.93707113 35.07489247 26.81257575 31.9839676 23.68175733 28.89917397 C22.19944426 27.43640777 20.7206882 25.9701517 19.24337769 24.50233459 C17.45316115 22.72375326 15.65760138 20.9505246 13.85533142 19.18415833 C8.57791333 13.91762539 3.79212165 8.4546758 0 2 C0 1.34 0 0.68 0 0 Z " fill="#E6A31E" transform="translate(110,336)"/>
<path d="M0 0 C3.62213359 0.74743707 6.93863386 2.02121846 10.33862305 3.45678711 C11.07508057 3.76656494 11.81153809 4.07634277 12.5703125 4.39550781 C28.74032626 11.44406475 42.03729959 22.65417871 53.8659668 35.58178711 C59.84145938 42.03271846 65.9908009 48.28011768 72.25268555 54.45288086 C73.5476873 55.73244408 73.5476873 55.73244408 74.86885071 57.03785706 C78.42984841 60.55394754 81.99330897 64.06732972 85.57055664 67.56689453 C88.22381048 70.16555761 90.86408392 72.77685263 93.50268555 75.39038086 C94.30477448 76.16868759 95.1068634 76.94699432 95.93325806 77.74888611 C102.84214911 84.62534909 108.55761303 92.42463396 109.21362305 102.45678711 C108.77327159 113.06783684 104.96118787 120.1839307 97.27612305 127.33178711 C89.91906631 133.32848241 82.12101591 134.99919456 72.77612305 134.26538086 C67.14144069 133.08839951 63.20105915 130.08030303 58.9440918 126.36303711 C58.34172699 125.84143509 57.73936218 125.31983307 57.1187439 124.78242493 C49.15872492 117.78313293 41.77181172 110.19262128 34.33862305 102.64428711 C32.1631966 100.44098922 29.98618825 98.23931088 27.80612183 96.04060364 C26.46526998 94.68774888 25.12709176 93.33223617 23.79226685 91.97343445 C20.00280644 88.14372534 16.09445936 84.52771206 11.99798584 81.02755737 C9.79304197 79.08655061 7.77454259 77.00767865 5.75366211 74.87866211 C-5.53710143 63.03465895 -18.16395275 57.62740441 -34.51782227 56.98510742 C-46.24444477 56.83871394 -56.72338372 59.68993972 -67.78637695 63.45678711 C-64.60911203 59.6440692 -61.38637795 56.0016224 -57.84887695 52.51928711 C-55.3105316 50.01911237 -52.90401406 47.48524073 -50.59887695 44.76928711 C-43.59952999 36.64619178 -35.83605073 29.07808791 -27.6809082 22.12475586 C-22.42114698 17.49399701 -17.57042392 12.42835179 -12.97387695 7.14428711 C-12.40926758 6.49975586 -11.8446582 5.85522461 -11.26293945 5.19116211 C-10.07706618 3.7982316 -8.95217792 2.35349162 -7.84887695 0.89428711 C-5.09917907 -1.02216899 -3.20594132 -0.47461957 0 0 Z " fill="#EAAF3B" transform="translate(283.786376953125,103.543212890625)"/>
<path d="M0 0 C0.91909602 -0.00367669 1.83819203 -0.00735338 2.78513944 -0.01114148 C5.87803597 -0.02219199 8.97089892 -0.0260245 12.06381226 -0.02983093 C14.27622586 -0.0360946 16.48863841 -0.04274131 18.7010498 -0.04974365 C24.72194193 -0.06716339 30.74282611 -0.07770829 36.7637372 -0.08594918 C40.5249206 -0.09109776 44.28610152 -0.09717359 48.04728317 -0.10346031 C58.46494278 -0.12033175 68.88260082 -0.13496599 79.30027199 -0.14220905 C82.00335313 -0.14411889 84.70643427 -0.14603923 87.40951538 -0.147995 C88.41724784 -0.14872061 88.41724784 -0.14872061 89.44533853 -0.14946087 C100.32228448 -0.1577567 111.19912029 -0.18308579 122.07601817 -0.21557567 C133.24858485 -0.24867598 144.42111173 -0.266328 155.59373128 -0.26985329 C161.86449812 -0.27220429 168.13509092 -0.28117136 174.40581131 -0.30631447 C180.3073422 -0.32959441 186.20858448 -0.33382852 192.11014938 -0.32355309 C194.27365834 -0.32305759 196.4371815 -0.32938211 198.60064697 -0.34310913 C201.5601184 -0.3608327 204.51855461 -0.35371917 207.47802734 -0.34057617 C208.32911973 -0.35154542 209.18021211 -0.36251466 210.05709517 -0.37381631 C218.77733511 -0.28066819 225.93471145 2.96191787 232.1199646 9.14717102 C236.67906462 15.14998605 239.58671386 21.44580824 239.1199646 29.14717102 C236.74586676 30.33421994 235.33666784 30.2657286 232.68841362 30.25460148 C231.75088151 30.25310913 230.8133494 30.25161678 229.84740722 30.25007921 C228.81045876 30.24327542 227.7735103 30.23647164 226.70513916 30.22946167 C225.60903828 30.22623254 224.5129374 30.22300341 223.38362134 30.21967643 C219.68616357 30.20754821 215.98877817 30.18818648 212.29135132 30.16889954 C209.65069635 30.15876237 207.01004274 30.14902367 204.36938477 30.13978577 C198.67157176 30.11905431 192.97378416 30.09462484 187.27599716 30.06770515 C179.0378879 30.02878881 170.79976357 29.99541621 162.5616249 29.96340989 C149.19677624 29.91133444 135.83195057 29.85475656 122.46713257 29.79536438 C109.48211563 29.7376696 96.49709251 29.68208466 83.51205444 29.62934875 C82.71206508 29.62609904 81.91207571 29.62284932 81.08784424 29.61950112 C77.07465455 29.60321179 73.0614647 29.58696405 69.04827476 29.570737 C35.73880948 29.43599871 2.42937893 29.29396066 -30.8800354 29.14717102 C-30.73897712 27.70239374 -30.59241058 26.25815352 -30.44351196 24.81416321 C-30.3624823 24.00984863 -30.28145264 23.20553406 -30.19796753 22.37684631 C-29.27598456 15.91092969 -24.75806106 10.23109948 -19.8800354 6.14717102 C-13.10126135 1.45929585 -8.30464852 -0.00177109 0 0 Z " fill="#B3B1B0" transform="translate(230.88003540039063,276.8528289794922)"/>
<path d="M0 0 C0.99 0.495 0.99 0.495 2 1 C1.09757568 1.8971875 0.19515137 2.794375 -0.73461914 3.71875 C-4.11238386 7.07828482 -7.48673165 10.44123444 -10.86010742 13.80517578 C-12.31492017 15.25498917 -13.77063283 16.70390017 -15.22729492 18.15185547 C-17.33234551 20.24464643 -19.43403619 22.34076374 -21.53515625 24.4375 C-22.49809349 25.39269531 -22.49809349 25.39269531 -23.48048401 26.3671875 C-26.57693574 29.46326207 -29.56194553 32.60331718 -32.41967773 35.921875 C-36.31962633 40.43525838 -40.51120858 44.61920624 -44.75 48.8125 C-45.56694336 49.62565674 -46.38388672 50.43881348 -47.22558594 51.27661133 C-50.68695042 54.7217734 -54.15428591 58.1609029 -57.62109375 61.60058594 C-60.16615188 64.12746508 -62.70813131 66.65741315 -65.25 69.1875 C-66.02311523 69.95231689 -66.79623047 70.71713379 -67.59277344 71.50512695 C-82.94933719 86.79292497 -91.17481388 100.31270388 -91.33007812 122.30200195 C-91.23153594 130.87763603 -89.35348227 138.79433191 -87 147 C-89 146 -89 146 -90.03515625 143.234375 C-90.37417969 142.08453125 -90.71320313 140.9346875 -91.0625 139.75 C-91.57490234 138.04070312 -91.57490234 138.04070312 -92.09765625 136.296875 C-96.17663656 121.39358764 -94.80262559 106.16595768 -87.875 92.375 C-84.98045007 87.30052969 -81.79242954 83.04203098 -77.73803711 78.84716797 C-75.39083681 76.40641452 -73.09365465 73.92746872 -70.80299377 71.43395996 C-58.00750358 57.58267495 -44.50915846 44.39694561 -31.15631104 31.08764648 C-27.6342312 27.57593627 -24.11510592 24.06126775 -20.59570312 20.546875 C-13.73329603 13.69507972 -6.86770947 6.8464803 0 0 Z " fill="#DAA82C" transform="translate(195,185)"/>
<path d="M0 0 C73.92 0 147.84 0 224 0 C224 0.33 224 0.66 224 1 C150.08 1 76.16 1 0 1 C0 0.67 0 0.34 0 0 Z " fill="#B2B0AF" transform="translate(223,275)"/>
<path d="M0 0 C0.66 0.66 1.32 1.32 2 2 C-15.82 19.82 -33.64 37.64 -52 56 C-51.01 56.99 -50.02 57.98 -49 59 C-50.6210103 59.69685498 -52.24696066 60.38222861 -53.875 61.0625 C-54.77992188 61.44535156 -55.68484375 61.82820313 -56.6171875 62.22265625 C-59 63 -59 63 -61 62 C-60.07058594 61.0821875 -59.14117187 60.164375 -58.18359375 59.21875 C-50.58587261 51.78977597 -50.58587261 51.78977597 -43.4375 43.9375 C-36.61831295 35.90678225 -28.90439346 28.49743021 -20.89453125 21.66796875 C-14.98368563 16.46398714 -9.60999347 10.71607929 -4.5078125 4.7265625 C-3.06727105 3.07703058 -1.56673075 1.52920426 0 0 Z " fill="#DEA638" transform="translate(277,104)"/>
<path d="M0 0 C0.66 0.33 1.32 0.66 2 1 C1.09757568 1.8971875 0.19515137 2.794375 -0.73461914 3.71875 C-4.11238386 7.07828482 -7.48673165 10.44123444 -10.86010742 13.80517578 C-12.31492017 15.25498917 -13.77063283 16.70390017 -15.22729492 18.15185547 C-17.33234551 20.24464643 -19.43403619 22.34076374 -21.53515625 24.4375 C-22.49809349 25.39269531 -22.49809349 25.39269531 -23.48048401 26.3671875 C-27.27426015 30.16050155 -30.85543397 34.07677309 -34.36207581 38.13623047 C-36.64302349 40.73168685 -39.04517102 43.15732977 -41.49609375 45.59375 C-41.97450211 46.07074341 -42.45291046 46.54773682 -42.94581604 47.03918457 C-44.44066514 48.52853695 -45.93899059 50.01433149 -47.4375 51.5 C-48.4657298 52.52320139 -49.49372626 53.54663733 -50.52148438 54.5703125 C-53.01164338 57.04957999 -55.50492833 59.52567538 -58 62 C-58.66 61.34 -59.32 60.68 -60 60 C-40.2 40.2 -20.4 20.4 0 0 Z " fill="#DAA635" transform="translate(195,185)"/>
<path d="M0 0 C2.51038592 2.40997049 4.81738344 4.93240067 7.07641602 7.57421875 C11.25291583 12.3616905 15.70984656 16.83596431 20.21484375 21.3125 C21.49845543 22.59398926 21.49845543 22.59398926 22.80799866 23.90136719 C25.51547381 26.60328862 28.22642254 29.30169359 30.9375 32 C32.78473675 33.84221577 34.63174427 35.68466143 36.47851562 37.52734375 C40.98303003 42.02089061 45.49039405 46.5115632 50 51 C49.34 51.66 48.68 52.32 48 53 C42.76608785 47.83608781 37.54067066 42.66373279 32.32547665 37.48091316 C29.90270202 35.07368902 27.47726408 32.66929127 25.04516602 30.27148438 C22.23902146 27.50465183 19.44548083 24.72527773 16.65234375 21.9453125 C15.7916478 21.1001004 14.93095184 20.25488831 14.04417419 19.38406372 C8.70658037 14.04794427 3.83335243 8.53897403 0 2 C0 1.34 0 0.68 0 0 Z " fill="#D5981C" transform="translate(110,336)"/>
<path d="M0 0 C3.2586636 1.4264578 5.4024854 3.16704162 7.890625 5.6953125 C8.95410156 6.76845703 8.95410156 6.76845703 10.0390625 7.86328125 C11.13347656 8.98283203 11.13347656 8.98283203 12.25 10.125 C12.99507812 10.87910156 13.74015625 11.63320313 14.5078125 12.41015625 C16.3431342 14.26900772 18.1736191 16.13237005 20 18 C19.34 18.66 18.68 19.32 18 20 C14.99196428 17.04974274 11.9949821 14.08850331 9 11.125 C8.14148438 10.28324219 7.28296875 9.44148438 6.3984375 8.57421875 C5.58632812 7.76855469 4.77421875 6.96289062 3.9375 6.1328125 C2.80634766 5.01737061 2.80634766 5.01737061 1.65234375 3.87939453 C0 2 0 2 0 0 Z " fill="#D4971C" transform="translate(140,369)"/>
<path d="M0 0 C0.66 0 1.32 0 2 0 C0.6415798 3.04332765 -0.88463024 5.12309151 -3.2578125 7.453125 C-3.88300781 8.071875 -4.50820312 8.690625 -5.15234375 9.328125 C-5.80332031 9.96234375 -6.45429687 10.5965625 -7.125 11.25 C-7.78371094 11.8996875 -8.44242187 12.549375 -9.12109375 13.21875 C-10.74296643 14.81711727 -12.3693281 16.41061897 -14 18 C-14.66 17.67 -15.32 17.34 -16 17 C-15.57589844 16.5875 -15.15179688 16.175 -14.71484375 15.75 C-10.78362977 11.87926624 -7.07420862 7.88506222 -3.48046875 3.69921875 C-2.36828828 2.42270555 -1.19716986 1.19716986 0 0 Z " fill="#E2AB38" transform="translate(134,246)"/>
<path d="M0 0 C0 3 0 3 -1.65234375 4.99291992 C-2.40644531 5.73131104 -3.16054687 6.46970215 -3.9375 7.23046875 C-4.74960938 8.03291016 -5.56171875 8.83535156 -6.3984375 9.66210938 C-7.25695312 10.49548828 -8.11546875 11.32886719 -9 12.1875 C-10.28777344 13.4549707 -10.28777344 13.4549707 -11.6015625 14.74804688 C-13.7278365 16.83888298 -15.86078464 18.92241983 -18 21 C-18 18 -18 18 -16.34765625 16.00708008 C-15.21650391 14.89949341 -15.21650391 14.89949341 -14.0625 13.76953125 C-13.25039062 12.96708984 -12.43828125 12.16464844 -11.6015625 11.33789062 C-10.74304688 10.50451172 -9.88453125 9.67113281 -9 8.8125 C-7.71222656 7.5450293 -7.71222656 7.5450293 -6.3984375 6.25195312 C-4.2721635 4.16111702 -2.13921536 2.07758017 0 0 Z " fill="#30302F" transform="translate(189,102)"/>
<path d="M0 0 C0.66 0.66 1.32 1.32 2 2 C-1.3 5.3 -4.6 8.6 -8 12 C-8.66 11.34 -9.32 10.68 -10 10 C-6.7 6.7 -3.4 3.4 0 0 Z " fill="#C4922D" transform="translate(163,217)"/>
<path d="M0 0 C5.29012124 4.40843437 10.18808428 9.07559794 15 14 C14.67 14.66 14.34 15.32 14 16 C11.65861457 13.71643754 9.32833018 11.42186626 7 9.125 C5.99839844 8.14853516 5.99839844 8.14853516 4.9765625 7.15234375 C4.34492187 6.52714844 3.71328125 5.90195312 3.0625 5.2578125 C2.47597656 4.6817627 1.88945313 4.10571289 1.28515625 3.51220703 C0 2 0 2 0 0 Z " fill="#070705" transform="translate(109,427)"/>
<path d="M0 0 C4.2742558 1.5830577 6.26531794 4.50568404 9 8 C6 8 6 8 4.39453125 6.7578125 C3.87246094 6.21898437 3.35039062 5.68015625 2.8125 5.125 C2.28269531 4.59132813 1.75289062 4.05765625 1.20703125 3.5078125 C0 2 0 2 0 0 Z " fill="#B27E18" transform="translate(151,380)"/>
<path d="M0 0 C0.99 0.33 1.98 0.66 3 1 C1.37660195 2.70884005 -0.29319053 4.37446717 -2 6 C-2.66 6 -3.32 6 -4 6 C-2.84826645 3.53199953 -1.95216435 1.95216435 0 0 Z " fill="#CC932B" transform="translate(117,264)"/>
<path d="M0 0 C5.28 0 10.56 0 16 0 C16 0.33 16 0.66 16 1 C10.72 1 5.44 1 0 1 C0 0.67 0 0.34 0 0 Z " fill="#E9AD35" transform="translate(239,161)"/>
<path d="M0 0 C3.3 0 6.6 0 10 0 C10 0.33 10 0.66 10 1 C6.7 1 3.4 1 0 1 C0 0.67 0 0.34 0 0 Z " fill="#E1A01D" transform="translate(357,372)"/>
<path d="M0 0 C0.33 0 0.66 0 1 0 C1 2.97 1 5.94 1 9 C0.67 9 0.34 9 0 9 C0 6.03 0 3.06 0 0 Z " fill="#DC9D20" transform="translate(104,306)"/>
<path d="M0 0 C0.33 0 0.66 0 1 0 C1 2.97 1 5.94 1 9 C0.67 9 0.34 9 0 9 C0 6.03 0 3.06 0 0 Z " fill="#A8A7A5" transform="translate(471,302)"/>
<path d="M0 0 C0.33 0 0.66 0 1 0 C1 2.97 1 5.94 1 9 C0.67 9 0.34 9 0 9 C0 6.03 0 3.06 0 0 Z " fill="#E6AC36" transform="translate(104,296)"/>
<path d="M0 0 C0.33 0 0.66 0 1 0 C1 2.97 1 5.94 1 9 C0.67 9 0.34 9 0 9 C0 6.03 0 3.06 0 0 Z " fill="#20201F" transform="translate(339,25)"/>
<path d="M0 0 C0 0.99 0 1.98 0 3 C-0.99 3.66 -1.98 4.32 -3 5 C-1.125 1.125 -1.125 1.125 0 0 Z " fill="#EAA91F" transform="translate(377,432)"/>
<path d="M0 0 C1.32 0.99 2.64 1.98 4 3 C3.67 3.66 3.34 4.32 3 5 C1.5 3.625 1.5 3.625 0 2 C0 1.34 0 0.68 0 0 Z " fill="#E8B721" transform="translate(178,404)"/>
<path d="M0 0 C0.33 0 0.66 0 1 0 C1 2.64 1 5.28 1 8 C0.67 8 0.34 8 0 8 C0 5.36 0 2.72 0 0 Z " fill="#161615" transform="translate(38,302)"/>
<path d="M0 0 C1.98 0 3.96 0 6 0 C6 0.33 6 0.66 6 1 C4.02 1 2.04 1 0 1 C0 0.67 0 0.34 0 0 Z " fill="#E6A51E" transform="translate(253,449)"/>
<path d="M0 0 C0.66 0.33 1.32 0.66 2 1 C0.02 1.99 0.02 1.99 -2 3 C-1.34 2.01 -0.68 1.02 0 0 Z " fill="#E9A91E" transform="translate(295,425)"/>
<path d="M0 0 C0.66 0.33 1.32 0.66 2 1 C0.02 1.99 0.02 1.99 -2 3 C-1.34 2.01 -0.68 1.02 0 0 Z " fill="#EAAA1F" transform="translate(334,387)"/>
<path d="M0 0 C0.33 0 0.66 0 1 0 C1 1.98 1 3.96 1 6 C0.67 6 0.34 6 0 6 C0 4.02 0 2.04 0 0 Z " fill="#060605" transform="translate(39,316)"/>
<path d="M0 0 C0.33 0 0.66 0 1 0 C1 1.98 1 3.96 1 6 C0.67 6 0.34 6 0 6 C0 4.02 0 2.04 0 0 Z " fill="#2B2B29" transform="translate(39,290)"/>
<path d="M0 0 C0 0.99 0 1.98 0 3 C-0.99 3.495 -0.99 3.495 -2 4 C-1.34 2.68 -0.68 1.36 0 0 Z " fill="#E9B342" transform="translate(135,249)"/>
<path d="M0 0 C0 0.99 0 1.98 0 3 C-0.99 3.495 -0.99 3.495 -2 4 C-1.34 2.68 -0.68 1.36 0 0 Z " fill="#ECB443" transform="translate(180,203)"/>
<path d="M0 0 C1.98 0.99 1.98 0.99 4 2 C3.01 2 2.02 2 1 2 C0.67 1.34 0.34 0.68 0 0 Z " fill="#ECB548" transform="translate(309,199)"/>
<path d="M0 0 C1.485 0.99 1.485 0.99 3 2 C2.67 2.66 2.34 3.32 2 4 C1.34 2.68 0.68 1.36 0 0 Z " fill="#EAB244" transform="translate(352,152)"/>
<path d="M0 0 C1.65 0 3.3 0 5 0 C5 0.33 5 0.66 5 1 C3.35 1 1.7 1 0 1 C0 0.67 0 0.34 0 0 Z " fill="#E1A01E" transform="translate(236,449)"/>
<path d="M0 0 C0.33 0 0.66 0 1 0 C1 1.65 1 3.3 1 5 C0.67 5 0.34 5 0 5 C0 3.35 0 1.7 0 0 Z " fill="#A8A6A5" transform="translate(198,304)"/>
<path d="M0 0 C0.33 0 0.66 0 1 0 C1 1.65 1 3.3 1 5 C0.67 5 0.34 5 0 5 C0 3.35 0 1.7 0 0 Z " fill="#EAB243" transform="translate(393,209)"/>
<path d="M0 0 C0 0.99 0 1.98 0 3 C-0.66 2.67 -1.32 2.34 -2 2 C-1.34 1.34 -0.68 0.68 0 0 Z " fill="#333332" transform="translate(192,99)"/>
<path d="M0 0 C4 1 4 1 4 1 Z " fill="#E5A21F" transform="translate(272,511)"/>
<path d="M0 0 C4 1 4 1 4 1 Z " fill="#E5A31D" transform="translate(218,511)"/>
<path d="M0 0 C1 4 1 4 1 4 Z " fill="#E3A11E" transform="translate(393,407)"/>
<path d="M0 0 C1 4 1 4 1 4 Z " fill="#E6A31E" transform="translate(393,398)"/>
<path d="M0 0 C1 4 1 4 1 4 Z " fill="#060605" transform="translate(40,324)"/>
<path d="M0 0 C1 4 1 4 1 4 Z " fill="#222221" transform="translate(40,283)"/>
<path d="M0 0 C1 4 1 4 1 4 Z " fill="#2A2A29" transform="translate(41,278)"/>
<path d="M0 0 C4 1 4 1 4 1 Z " fill="#EAB243" transform="translate(355,238)"/>
<path d="M0 0 C1 4 1 4 1 4 Z " fill="#E9AD37" transform="translate(393,200)"/>
<path d="M0 0 C4 1 4 1 4 1 Z " fill="#E9B03D" transform="translate(258,162)"/>
<path d="M0 0 C4 1 4 1 4 1 Z " fill="#E9AF38" transform="translate(232,162)"/>
<path d="M0 0 C3 1 3 1 3 1 Z " fill="#E2A01E" transform="translate(277,510)"/>
<path d="M0 0 C3 1 3 1 3 1 Z " fill="#E1A01E" transform="translate(214,510)"/>
<path d="M0 0 C3 1 3 1 3 1 Z " fill="#E8A41F" transform="translate(207,508)"/>
<path d="M0 0 C3 1 3 1 3 1 Z " fill="#E9A81F" transform="translate(204,507)"/>
<path d="M0 0 C3 1 3 1 3 1 Z " fill="#E1A01D" transform="translate(260,448)"/>
<path d="M0 0 C3 1 3 1 3 1 Z " fill="#E1A01D" transform="translate(231,448)"/>
<path d="M0 0 C0.66 0 1.32 0 2 0 C1.67 0.66 1.34 1.32 1 2 C0.67 1.34 0.34 0.68 0 0 Z " fill="#090906" transform="translate(129,448)"/>
<path d="M0 0 C3 1 3 1 3 1 Z " fill="#E5A31E" transform="translate(227,447)"/>
<path d="" fill="#EAAC1F" transform="translate(0,0)"/>
<path d="" fill="#060605" transform="translate(0,0)"/>
<path d="M0 0 C3 1 3 1 3 1 Z " fill="#999896" transform="translate(446,336)"/>
<path d="M0 0 C3 1 3 1 3 1 Z " fill="#9C9A98" transform="translate(221,336)"/>
<path d="" fill="#070705" transform="translate(0,0)"/>
<path d="" fill="#060605" transform="translate(0,0)"/>
<path d="" fill="#D5981C" transform="translate(0,0)"/>
<path d="" fill="#D8991C" transform="translate(0,0)"/>
<path d="" fill="#9F9E9C" transform="translate(0,0)"/>
<path d="" fill="#B2B1AF" transform="translate(0,0)"/>
<path d="" fill="#B3B0AF" transform="translate(0,0)"/>
<path d="" fill="#B2B1AF" transform="translate(0,0)"/>
<path d="" fill="#E5AB35" transform="translate(0,0)"/>
<path d="M0 0 C3 1 3 1 3 1 Z " fill="#B3B0AF" transform="translate(448,276)"/>
<path d="M0 0 C3 1 3 1 3 1 Z " fill="#B3B0AF" transform="translate(219,276)"/>
<path d="" fill="#222221" transform="translate(0,0)"/>
<path d="M0 0 C3 1 3 1 3 1 Z " fill="#E9AE38" transform="translate(366,238)"/>
<path d="M0 0 C3 1 3 1 3 1 Z " fill="#EAB546" transform="translate(370,237)"/>
<path d="M0 0 C3 1 3 1 3 1 Z " fill="#E9AF3D" transform="translate(263,163)"/>
<path d="M0 0 C3 1 3 1 3 1 Z " fill="#E9AE38" transform="translate(228,163)"/>
<path d="" fill="#232321" transform="translate(0,0)"/>
<path d="M0 0 C2 1 2 1 2 1 Z " fill="#E2A01E" transform="translate(281,509)"/>
<path d="M0 0 C2 1 2 1 2 1 Z " fill="#E2A11E" transform="translate(211,509)"/>
<path d="M0 0 C2 1 2 1 2 1 Z " fill="#E5A31F" transform="translate(284,508)"/>
<path d="M0 0 C2 1 2 1 2 1 Z " fill="#EAA71F" transform="translate(287,507)"/>
<path d="M0 0 C2 1 2 1 2 1 Z " fill="#E5A21E" transform="translate(290,506)"/>
<path d="M0 0 C2 1 2 1 2 1 Z " fill="#E8A61F" transform="translate(202,506)"/>
<path d="M0 0 C2 1 2 1 2 1 Z " fill="#E09F1E" transform="translate(293,505)"/>
<path d="M0 0 C2 1 2 1 2 1 Z " fill="#E2A01E" transform="translate(199,505)"/>
<path d="M0 0 C2 1 2 1 2 1 Z " fill="#E3A21E" transform="translate(295,504)"/>
<path d="M0 0 C2 1 2 1 2 1 Z " fill="#E9A41F" transform="translate(197,504)"/>
<path d="M0 0 C2 1 2 1 2 1 Z " fill="#EAA51E" transform="translate(297,503)"/>
<path d="M0 0 C2 1 2 1 2 1 Z " fill="#F0AD20" transform="translate(299,502)"/>
<path d="M0 0 C2 1 2 1 2 1 Z " fill="#E7A21E" transform="translate(305,499)"/>
<path d="M0 0 C2 1 2 1 2 1 Z " fill="#E29F1D" transform="translate(307,498)"/>
<path d="M0 0 C2 1 2 1 2 1 Z " fill="#EBA71F" transform="translate(185,498)"/>
<path d="M0 0 C2 1 2 1 2 1 Z " fill="#EEA71F" transform="translate(310,496)"/>
<path d="M0 0 C2 1 2 1 2 1 Z " fill="#E5A11E" transform="translate(180,495)"/>
<path d="M0 0 C2 1 2 1 2 1 Z " fill="#EEAF1F" transform="translate(313,494)"/>
<path d="M0 0 C2 1 2 1 2 1 Z " fill="#E4A21F" transform="translate(316,492)"/>
<path d="M0 0 C2 1 2 1 2 1 Z " fill="#B07E1A" transform="translate(172,489)"/>
<path d="M0 0 C2 1 2 1 2 1 Z " fill="#060608" transform="translate(162,481)"/>
<path d="M0 0 C2 1 2 1 2 1 Z " fill="#E3A11E" transform="translate(265,447)"/>
<path d="M0 0 C2 1 2 1 2 1 Z " fill="#E3A11E" transform="translate(268,446)"/>
<path d="M0 0 C2 1 2 1 2 1 Z " fill="#E8A41F" transform="translate(224,446)"/>
<path d="M0 0 C2 1 2 1 2 1 Z " fill="#E2A01E" transform="translate(222,445)"/>
<path d="M0 0 C2 1 2 1 2 1 Z " fill="#DF9E1D" transform="translate(220,444)"/>
<path d="M0 0 C2 1 2 1 2 1 Z " fill="#E0A01D" transform="translate(218,443)"/>
<path d="M0 0 C2 1 2 1 2 1 Z " fill="#E3A11E" transform="translate(216,442)"/>
<path d="M0 0 C2 1 2 1 2 1 Z " fill="#C8911A" transform="translate(213,440)"/>
<path d="" fill="#E2A01E" transform="translate(0,0)"/>
<path d="" fill="#E2A01E" transform="translate(0,0)"/>
<path d="" fill="#E7A31F" transform="translate(0,0)"/>
<path d="" fill="#EEA91F" transform="translate(0,0)"/>
<path d="" fill="#060605" transform="translate(0,0)"/>
<path d="" fill="#060605" transform="translate(0,0)"/>
<path d="M0 0 C2 1 2 1 2 1 Z " fill="#EBA51E" transform="translate(345,377)"/>
<path d="M0 0 C2 1 2 1 2 1 Z " fill="#E8A61E" transform="translate(376,376)"/>
<path d="M0 0 C2 1 2 1 2 1 Z " fill="#ECA820" transform="translate(374,375)"/>
<path d="M0 0 C2 1 2 1 2 1 Z " fill="#DF9F1E" transform="translate(348,375)"/>
<path d="M0 0 C2 1 2 1 2 1 Z " fill="#E5A21E" transform="translate(372,374)"/>
<path d="M0 0 C2 1 2 1 2 1 Z " fill="#E09F1E" transform="translate(350,374)"/>
<path d="" fill="#060605" transform="translate(0,0)"/>
<path d="M0 0 C2 1 2 1 2 1 Z " fill="#E2A11E" transform="translate(369,373)"/>
<path d="M0 0 C2 1 2 1 2 1 Z " fill="#DF9F1D" transform="translate(353,373)"/>
<path d="" fill="#070706" transform="translate(0,0)"/>
<path d="" fill="#070705" transform="translate(0,0)"/>
<path d="" fill="#060605" transform="translate(0,0)"/>
<path d="" fill="#060605" transform="translate(0,0)"/>
<path d="" fill="#060605" transform="translate(0,0)"/>
<path d="" fill="#060606" transform="translate(0,0)"/>
<path d="" fill="#070706" transform="translate(0,0)"/>
<path d="" fill="#060605" transform="translate(0,0)"/>
<path d="" fill="#050504" transform="translate(0,0)"/>
<path d="" fill="#060605" transform="translate(0,0)"/>
<path d="" fill="#E9AF20" transform="translate(0,0)"/>
<path d="" fill="#060605" transform="translate(0,0)"/>
<path d="" fill="#D99A1D" transform="translate(0,0)"/>
<path d="M0 0 C2 1 2 1 2 1 Z " fill="#90928F" transform="translate(450,335)"/>
<path d="M0 0 C2 1 2 1 2 1 Z " fill="#9C9997" transform="translate(218,335)"/>
<path d="" fill="#956B14" transform="translate(0,0)"/>
<path d="M0 0 C2 1 2 1 2 1 Z " fill="#9F9E9C" transform="translate(453,334)"/>
<path d="" fill="#C28A1B" transform="translate(0,0)"/>
<path d="M0 0 C2 1 2 1 2 1 Z " fill="#9C9998" transform="translate(212,332)"/>
<path d="" fill="#BF871B" transform="translate(0,0)"/>
<path d="M0 0 C2 1 2 1 2 1 Z " fill="#8D8B8D" transform="translate(460,329)"/>
<path d="" fill="#7E5B12" transform="translate(0,0)"/>
<path d="" fill="#9A9897" transform="translate(0,0)"/>
<path d="" fill="#CE921B" transform="translate(0,0)"/>
<path d="" fill="#9A9999" transform="translate(0,0)"/>
<path d="" fill="#9F9C9B" transform="translate(0,0)"/>
<path d="" fill="#9D9B99" transform="translate(0,0)"/>
<path d="" fill="#9B9999" transform="translate(0,0)"/>
<path d="" fill="#A19F9D" transform="translate(0,0)"/>
<path d="" fill="#9F9D9C" transform="translate(0,0)"/>
<path d="" fill="#B2B1AF" transform="translate(0,0)"/>
<path d="" fill="#B1B1B1" transform="translate(0,0)"/>
<path d="" fill="#B2B0AF" transform="translate(0,0)"/>
<path d="" fill="#B2B0B0" transform="translate(0,0)"/>
<path d="" fill="#B2B0B0" transform="translate(0,0)"/>
<path d="" fill="#B2B1B0" transform="translate(0,0)"/>
<path d="" fill="#E1A837" transform="translate(0,0)"/>
<path d="" fill="#B2B0AF" transform="translate(0,0)"/>
<path d="" fill="#E2A936" transform="translate(0,0)"/>
<path d="" fill="#C19541" transform="translate(0,0)"/>
<path d="M0 0 C2 1 2 1 2 1 Z " fill="#B3B0AF" transform="translate(210,281)"/>
<path d="" fill="#DEA739" transform="translate(0,0)"/>
<path d="M0 0 C2 1 2 1 2 1 Z " fill="#B3B1AF" transform="translate(213,279)"/>
<path d="" fill="#DFAA3B" transform="translate(0,0)"/>
<path d="M0 0 C2 1 2 1 2 1 Z " fill="#B2B0AF" transform="translate(217,277)"/>
<path d="" fill="#ECB036" transform="translate(0,0)"/>
<path d="" fill="#21211F" transform="translate(0,0)"/>
<path d="" fill="#262625" transform="translate(0,0)"/>
<path d="" fill="#2A2A2A" transform="translate(0,0)"/>
<path d="" fill="#252524" transform="translate(0,0)"/>
<path d="" fill="#20201F" transform="translate(0,0)"/>
<path d="" fill="#262626" transform="translate(0,0)"/>
<path d="" fill="#1F1F1E" transform="translate(0,0)"/>
<path d="" fill="#222220" transform="translate(0,0)"/>
<path d="" fill="#212120" transform="translate(0,0)"/>
<path d="" fill="#20201F" transform="translate(0,0)"/>
<path d="" fill="#222222" transform="translate(0,0)"/>
<path d="M0 0 C2 1 2 1 2 1 Z " fill="#E9AE38" transform="translate(352,237)"/>
<path d="" fill="#313133" transform="translate(0,0)"/>
<path d="M0 0 C2 1 2 1 2 1 Z " fill="#E9AE3A" transform="translate(373,236)"/>
<path d="M0 0 C2 1 2 1 2 1 Z " fill="#EBAE3A" transform="translate(375,235)"/>
<path d="M0 0 C2 1 2 1 2 1 Z " fill="#E8AD35" transform="translate(377,234)"/>
<path d="M0 0 C2 1 2 1 2 1 Z " fill="#EAB54A" transform="translate(346,234)"/>
<path d="M0 0 C2 1 2 1 2 1 Z " fill="#EAAE3A" transform="translate(381,231)"/>
<path d="" fill="#222222" transform="translate(0,0)"/>
<path d="" fill="#232322" transform="translate(0,0)"/>
<path d="" fill="#E8AD36" transform="translate(0,0)"/>
<path d="" fill="#E8AD34" transform="translate(0,0)"/>
<path d="" fill="#E8AE37" transform="translate(0,0)"/>
<path d="" fill="#E8AD36" transform="translate(0,0)"/>
<path d="" fill="#EAB141" transform="translate(0,0)"/>
<path d="M0 0 C2 1 2 1 2 1 Z " fill="#E8B348" transform="translate(280,171)"/>
<path d="M0 0 C2 1 2 1 2 1 Z " fill="#A0812E" transform="translate(213,170)"/>
<path d="M0 0 C2 1 2 1 2 1 Z " fill="#E9AD35" transform="translate(277,169)"/>
<path d="M0 0 C2 1 2 1 2 1 Z " fill="#D6A034" transform="translate(216,168)"/>
<path d="M0 0 C2 1 2 1 2 1 Z " fill="#E8B241" transform="translate(274,167)"/>
<path d="M0 0 C2 1 2 1 2 1 Z " fill="#EEB035" transform="translate(218,167)"/>
<path d="M0 0 C2 1 2 1 2 1 Z " fill="#E9B03B" transform="translate(272,166)"/>
<path d="M0 0 C2 1 2 1 2 1 Z " fill="#E8AC35" transform="translate(220,166)"/>
<path d="M0 0 C2 1 2 1 2 1 Z " fill="#E9AB34" transform="translate(269,165)"/>
<path d="M0 0 C2 1 2 1 2 1 Z " fill="#E9AD3B" transform="translate(222,165)"/>
<path d="M0 0 C2 1 2 1 2 1 Z " fill="#E9AE3B" transform="translate(267,164)"/>
<path d="M0 0 C2 1 2 1 2 1 Z " fill="#E8AD36" transform="translate(225,164)"/>
<path d="M0 0 C2 1 2 1 2 1 Z " fill="#EAAF38" transform="translate(323,124)"/>
<path d="M0 0 C2 1 2 1 2 1 Z " fill="#E8B13F" transform="translate(318,120)"/>
<path d="M0 0 C2 1 2 1 2 1 Z " fill="#E9AF3B" transform="translate(314,117)"/>
<path d="M0 0 C2 1 2 1 2 1 Z " fill="#E8AF3D" transform="translate(311,115)"/>
<path d="M0 0 C2 1 2 1 2 1 Z " fill="#E9AD37" transform="translate(308,113)"/>
<path d="M0 0 C2 1 2 1 2 1 Z " fill="#E9B33F" transform="translate(306,112)"/>
<path d="M0 0 C2 1 2 1 2 1 Z " fill="#E8AB36" transform="translate(299,108)"/>
<path d="M0 0 C2 1 2 1 2 1 Z " fill="#E9B03B" transform="translate(294,106)"/>
<path d="M0 0 C2 1 2 1 2 1 Z " fill="#E8AE37" transform="translate(292,105)"/>
<path d="M0 0 C2 1 2 1 2 1 Z " fill="#E9AF3B" transform="translate(289,104)"/>
<path d="M0 0 C2 1 2 1 2 1 Z " fill="#E9AF3E" transform="translate(286,103)"/>
<path d="M0 0 C2 1 2 1 2 1 Z " fill="#E9AE3A" transform="translate(283,102)"/>
<path d="" fill="#242423" transform="translate(0,0)"/>
<path d="" fill="#222221" transform="translate(0,0)"/>
<path d="" fill="#232323" transform="translate(0,0)"/>
<path d="" fill="#222220" transform="translate(0,0)"/>
<path d="" fill="#262624" transform="translate(0,0)"/>
<path d="" fill="#222221" transform="translate(0,0)"/>
<path d="M0 0 C2 1 2 1 2 1 Z " fill="#232322" transform="translate(285,6)"/>
<path d="M0 0 C2 1 2 1 2 1 Z " fill="#2C2C32" transform="translate(324,3)"/>
<path d="M0 0 C2 1 2 1 2 1 Z " fill="#242422" transform="translate(289,3)"/>
<path d="M0 0 C2 1 2 1 2 1 Z " fill="#232221" transform="translate(321,1)"/>
<path d="M0 0 C2 1 2 1 2 1 Z " fill="#242321" transform="translate(319,0)"/>
<path d="" fill="#E2A01E" transform="translate(0,0)"/>
<path d="" fill="#E4A21D" transform="translate(0,0)"/>
<path d="" fill="#E2A01D" transform="translate(0,0)"/>
<path d="" fill="#E3A01F" transform="translate(0,0)"/>
<path d="" fill="#E19F1E" transform="translate(0,0)"/>
<path d="" fill="#E2A11E" transform="translate(0,0)"/>
<path d="" fill="#E1A01E" transform="translate(0,0)"/>
<path d="" fill="#E2A01F" transform="translate(0,0)"/>
<path d="" fill="#E5A21F" transform="translate(0,0)"/>
<path d="" fill="#E2A01E" transform="translate(0,0)"/>
<path d="" fill="#E5A11E" transform="translate(0,0)"/>
<path d="" fill="#E2A01E" transform="translate(0,0)"/>
<path d="" fill="#E3A01E" transform="translate(0,0)"/>
<path d="" fill="#E7A520" transform="translate(0,0)"/>
<path d="" fill="#E19E1D" transform="translate(0,0)"/>
<path d="" fill="#E09E1E" transform="translate(0,0)"/>
<path d="" fill="#E3A11E" transform="translate(0,0)"/>
<path d="" fill="#E3A11F" transform="translate(0,0)"/>
<path d="" fill="#EAA620" transform="translate(0,0)"/>
<path d="" fill="#E9A620" transform="translate(0,0)"/>
<path d="" fill="#DD9E1E" transform="translate(0,0)"/>
<path d="" fill="#C88D1B" transform="translate(0,0)"/>
<path d="" fill="#E0A01E" transform="translate(0,0)"/>
<path d="" fill="#5D430E" transform="translate(0,0)"/>
<path d="" fill="#E2A11E" transform="translate(0,0)"/>
<path d="" fill="#32250B" transform="translate(0,0)"/>
<path d="" fill="#E2A01F" transform="translate(0,0)"/>
<path d="" fill="#070705" transform="translate(0,0)"/>
<path d="" fill="#E3A11F" transform="translate(0,0)"/>
<path d="" fill="#060605" transform="translate(0,0)"/>
<path d="" fill="#E5A31F" transform="translate(0,0)"/>
<path d="" fill="#060605" transform="translate(0,0)"/>
<path d="" fill="#E8A41E" transform="translate(0,0)"/>
<path d="" fill="#060605" transform="translate(0,0)"/>
<path d="" fill="#E8A51E" transform="translate(0,0)"/>
<path d="" fill="#E9A51E" transform="translate(0,0)"/>
<path d="" fill="#060605" transform="translate(0,0)"/>
<path d="" fill="#E9A61E" transform="translate(0,0)"/>
<path d="" fill="#060606" transform="translate(0,0)"/>
<path d="" fill="#E7A41F" transform="translate(0,0)"/>
<path d="" fill="#060606" transform="translate(0,0)"/>
<path d="" fill="#E6A21E" transform="translate(0,0)"/>
<path d="" fill="#060606" transform="translate(0,0)"/>
<path d="" fill="#E5A31F" transform="translate(0,0)"/>
<path d="" fill="#060606" transform="translate(0,0)"/>
<path d="" fill="#E5A41F" transform="translate(0,0)"/>
<path d="" fill="#060605" transform="translate(0,0)"/>
<path d="" fill="#E4A31E" transform="translate(0,0)"/>
<path d="" fill="#060606" transform="translate(0,0)"/>
<path d="" fill="#E4A11E" transform="translate(0,0)"/>
<path d="" fill="#050506" transform="translate(0,0)"/>
<path d="" fill="#E3A11F" transform="translate(0,0)"/>
<path d="" fill="#050506" transform="translate(0,0)"/>
<path d="" fill="#E2A01E" transform="translate(0,0)"/>
<path d="" fill="#050506" transform="translate(0,0)"/>
<path d="" fill="#E29F1F" transform="translate(0,0)"/>
<path d="" fill="#050506" transform="translate(0,0)"/>
<path d="" fill="#E3A11E" transform="translate(0,0)"/>
<path d="" fill="#050506" transform="translate(0,0)"/>
<path d="" fill="#E2A01E" transform="translate(0,0)"/>
<path d="" fill="#050505" transform="translate(0,0)"/>
<path d="" fill="#E1A01E" transform="translate(0,0)"/>
<path d="" fill="#050505" transform="translate(0,0)"/>
<path d="" fill="#E19F1E" transform="translate(0,0)"/>
<path d="" fill="#050505" transform="translate(0,0)"/>
<path d="" fill="#E2A01E" transform="translate(0,0)"/>
<path d="" fill="#050505" transform="translate(0,0)"/>
<path d="" fill="#E2A01E" transform="translate(0,0)"/>
<path d="" fill="#050504" transform="translate(0,0)"/>
<path d="" fill="#E2A01E" transform="translate(0,0)"/>
<path d="" fill="#050504" transform="translate(0,0)"/>
<path d="" fill="#E2A11E" transform="translate(0,0)"/>
<path d="" fill="#060604" transform="translate(0,0)"/>
<path d="" fill="#E2A01E" transform="translate(0,0)"/>
<path d="" fill="#060604" transform="translate(0,0)"/>
<path d="" fill="#E1A01E" transform="translate(0,0)"/>
<path d="" fill="#060604" transform="translate(0,0)"/>
<path d="" fill="#E1A01E" transform="translate(0,0)"/>
<path d="" fill="#060604" transform="translate(0,0)"/>
<path d="" fill="#E29F1E" transform="translate(0,0)"/>
<path d="" fill="#060604" transform="translate(0,0)"/>
<path d="" fill="#E29F1E" transform="translate(0,0)"/>
<path d="" fill="#060604" transform="translate(0,0)"/>
<path d="" fill="#E19F1D" transform="translate(0,0)"/>
<path d="" fill="#060604" transform="translate(0,0)"/>
<path d="" fill="#E19F1D" transform="translate(0,0)"/>
<path d="" fill="#070704" transform="translate(0,0)"/>
<path d="" fill="#E09F1E" transform="translate(0,0)"/>
<path d="" fill="#070704" transform="translate(0,0)"/>
<path d="" fill="#E09F1E" transform="translate(0,0)"/>
<path d="" fill="#070704" transform="translate(0,0)"/>
<path d="" fill="#E09E1E" transform="translate(0,0)"/>
<path d="" fill="#070704" transform="translate(0,0)"/>
<path d="" fill="#E09E1D" transform="translate(0,0)"/>
<path d="" fill="#070704" transform="translate(0,0)"/>
<path d="" fill="#DF9E1D" transform="translate(0,0)"/>
<path d="" fill="#060604" transform="translate(0,0)"/>
<path d="" fill="#DE9E1F" transform="translate(0,0)"/>
<path d="" fill="#DF9E1E" transform="translate(0,0)"/>
<path d="" fill="#DE9D1C" transform="translate(0,0)"/>
<path d="" fill="#050504" transform="translate(0,0)"/>
<path d="" fill="#DE9D1D" transform="translate(0,0)"/>
<path d="" fill="#050504" transform="translate(0,0)"/>
<path d="" fill="#DE9E1D" transform="translate(0,0)"/>
<path d="" fill="#E2A01E" transform="translate(0,0)"/>
<path d="" fill="#050504" transform="translate(0,0)"/>
<path d="" fill="#DD9D1D" transform="translate(0,0)"/>
<path d="" fill="#E19F1E" transform="translate(0,0)"/>
<path d="" fill="#050504" transform="translate(0,0)"/>
<path d="" fill="#DD9D1D" transform="translate(0,0)"/>
<path d="" fill="#E1A01E" transform="translate(0,0)"/>
<path d="" fill="#040405" transform="translate(0,0)"/>
<path d="" fill="#DC9D1D" transform="translate(0,0)"/>
<path d="" fill="#E5A21E" transform="translate(0,0)"/>
<path d="" fill="#DB9C1D" transform="translate(0,0)"/>
<path d="" fill="#DE9E1D" transform="translate(0,0)"/>
<path d="" fill="#E19F1E" transform="translate(0,0)"/>
<path d="" fill="#DA9B1D" transform="translate(0,0)"/>
<path d="" fill="#E7A31E" transform="translate(0,0)"/>
<path d="" fill="#DA9B1D" transform="translate(0,0)"/>
<path d="" fill="#E2A01E" transform="translate(0,0)"/>
<path d="" fill="#C18A1B" transform="translate(0,0)"/>
<path d="" fill="#D89B1D" transform="translate(0,0)"/>
<path d="" fill="#E09F1D" transform="translate(0,0)"/>
<path d="" fill="#D2961D" transform="translate(0,0)"/>
<path d="" fill="#D89A1D" transform="translate(0,0)"/>
<path d="" fill="#E09F1D" transform="translate(0,0)"/>
<path d="" fill="#E5A31F" transform="translate(0,0)"/>
<path d="" fill="#DE9E1E" transform="translate(0,0)"/>
<path d="" fill="#F0AB20" transform="translate(0,0)"/>
<path d="" fill="#DF9E1E" transform="translate(0,0)"/>
<path d="" fill="#F2AC1F" transform="translate(0,0)"/>
<path d="" fill="#DE9E1E" transform="translate(0,0)"/>
<path d="" fill="#F3AC20" transform="translate(0,0)"/>
<path d="" fill="#DD9D1E" transform="translate(0,0)"/>
<path d="" fill="#F2AB20" transform="translate(0,0)"/>
<path d="" fill="#DC9C1D" transform="translate(0,0)"/>
<path d="" fill="#F1AB20" transform="translate(0,0)"/>
<path d="" fill="#F6AF20" transform="translate(0,0)"/>
<path d="" fill="#DC9C1D" transform="translate(0,0)"/>
<path d="" fill="#F1AB20" transform="translate(0,0)"/>
<path d="" fill="#F4AB20" transform="translate(0,0)"/>
<path d="" fill="#DB9C1D" transform="translate(0,0)"/>
<path d="" fill="#F2AA20" transform="translate(0,0)"/>
<path d="" fill="#F2AB22" transform="translate(0,0)"/>
<path d="" fill="#DA9B1D" transform="translate(0,0)"/>
<path d="" fill="#F1AA20" transform="translate(0,0)"/>
<path d="" fill="#EDA922" transform="translate(0,0)"/>
<path d="" fill="#D99A1D" transform="translate(0,0)"/>
<path d="" fill="#F1AB20" transform="translate(0,0)"/>
<path d="" fill="#EBA71F" transform="translate(0,0)"/>
<path d="" fill="#F1AB20" transform="translate(0,0)"/>
<path d="" fill="#EAA51E" transform="translate(0,0)"/>
<path d="" fill="#F1AC21" transform="translate(0,0)"/>
<path d="" fill="#070705" transform="translate(0,0)"/>
<path d="" fill="#E9A61D" transform="translate(0,0)"/>
<path d="" fill="#F2AB20" transform="translate(0,0)"/>
<path d="" fill="#070708" transform="translate(0,0)"/>
<path d="" fill="#E6A320" transform="translate(0,0)"/>
<path d="" fill="#F8AB21" transform="translate(0,0)"/>
<path d="" fill="#F3AD1F" transform="translate(0,0)"/>
<path d="" fill="#060607" transform="translate(0,0)"/>
<path d="" fill="#E3A020" transform="translate(0,0)"/>
<path d="" fill="#F3AA22" transform="translate(0,0)"/>
<path d="" fill="#F5AE1F" transform="translate(0,0)"/>
<path d="" fill="#050507" transform="translate(0,0)"/>
<path d="" fill="#E19F1E" transform="translate(0,0)"/>
<path d="" fill="#EDA921" transform="translate(0,0)"/>
<path d="" fill="#F5AF1F" transform="translate(0,0)"/>
<path d="" fill="#050507" transform="translate(0,0)"/>
<path d="" fill="#DD9D1D" transform="translate(0,0)"/>
<path d="" fill="#EBA81F" transform="translate(0,0)"/>
<path d="" fill="#F4AD21" transform="translate(0,0)"/>
<path d="" fill="#050507" transform="translate(0,0)"/>
<path d="" fill="#E9A61D" transform="translate(0,0)"/>
<path d="" fill="#F7AD21" transform="translate(0,0)"/>
<path d="" fill="#050507" transform="translate(0,0)"/>
<path d="" fill="#E5A11E" transform="translate(0,0)"/>
<path d="" fill="#E8A51E" transform="translate(0,0)"/>
<path d="" fill="#FAB021" transform="translate(0,0)"/>
<path d="" fill="#050507" transform="translate(0,0)"/>
<path d="" fill="#E7A41E" transform="translate(0,0)"/>
<path d="" fill="#FBB221" transform="translate(0,0)"/>
<path d="" fill="#060606" transform="translate(0,0)"/>
<path d="" fill="#E4A21F" transform="translate(0,0)"/>
<path d="" fill="#FCB320" transform="translate(0,0)"/>
<path d="" fill="#080805" transform="translate(0,0)"/>
<path d="" fill="#E4A21F" transform="translate(0,0)"/>
<path d="" fill="#FCB320" transform="translate(0,0)"/>
<path d="" fill="#070705" transform="translate(0,0)"/>
<path d="" fill="#E3A11F" transform="translate(0,0)"/>
<path d="" fill="#FEB421" transform="translate(0,0)"/>
<path d="" fill="#070705" transform="translate(0,0)"/>
<path d="" fill="#E29F1E" transform="translate(0,0)"/>
<path d="" fill="#FFB422" transform="translate(0,0)"/>
<path d="" fill="#070705" transform="translate(0,0)"/>
<path d="" fill="#E1A01E" transform="translate(0,0)"/>
<path d="" fill="#FFB924" transform="translate(0,0)"/>
<path d="" fill="#060605" transform="translate(0,0)"/>
<path d="" fill="#E1A01E" transform="translate(0,0)"/>
<path d="" fill="#FFBB24" transform="translate(0,0)"/>
<path d="" fill="#070706" transform="translate(0,0)"/>
<path d="" fill="#E2A11E" transform="translate(0,0)"/>
<path d="" fill="#FFBC22" transform="translate(0,0)"/>
<path d="" fill="#060604" transform="translate(0,0)"/>
<path d="" fill="#E2A11E" transform="translate(0,0)"/>
<path d="" fill="#FFC022" transform="translate(0,0)"/>
<path d="" fill="#050504" transform="translate(0,0)"/>
<path d="" fill="#E2A11E" transform="translate(0,0)"/>
<path d="" fill="#FFC723" transform="translate(0,0)"/>
<path d="" fill="#060604" transform="translate(0,0)"/>
<path d="" fill="#E1A01E" transform="translate(0,0)"/>
<path d="" fill="#060604" transform="translate(0,0)"/>
<path d="" fill="#E2A01E" transform="translate(0,0)"/>
<path d="" fill="#050503" transform="translate(0,0)"/>
<path d="" fill="#E29F1E" transform="translate(0,0)"/>
<path d="" fill="#050503" transform="translate(0,0)"/>
<path d="" fill="#E29F1E" transform="translate(0,0)"/>
<path d="" fill="#060603" transform="translate(0,0)"/>
<path d="" fill="#E1A01E" transform="translate(0,0)"/>
<path d="" fill="#060603" transform="translate(0,0)"/>
<path d="" fill="#E0A01E" transform="translate(0,0)"/>
<path d="" fill="#D4961C" transform="translate(0,0)"/>
<path d="" fill="#060604" transform="translate(0,0)"/>
<path d="" fill="#E19F1E" transform="translate(0,0)"/>
<path d="" fill="#D4971C" transform="translate(0,0)"/>
<path d="" fill="#060603" transform="translate(0,0)"/>
<path d="" fill="#E1A01E" transform="translate(0,0)"/>
<path d="" fill="#D5971C" transform="translate(0,0)"/>
<path d="" fill="#050504" transform="translate(0,0)"/>
<path d="" fill="#E09F1F" transform="translate(0,0)"/>
<path d="" fill="#D5971D" transform="translate(0,0)"/>
<path d="" fill="#060603" transform="translate(0,0)"/>
<path d="" fill="#E0A01E" transform="translate(0,0)"/>
<path d="" fill="#D6971D" transform="translate(0,0)"/>
<path d="" fill="#050505" transform="translate(0,0)"/>
<path d="" fill="#DF9F1E" transform="translate(0,0)"/>
<path d="" fill="#D7981D" transform="translate(0,0)"/>
<path d="" fill="#050506" transform="translate(0,0)"/>
<path d="" fill="#DF9E1D" transform="translate(0,0)"/>
<path d="" fill="#D8991D" transform="translate(0,0)"/>
<path d="" fill="#050506" transform="translate(0,0)"/>
<path d="" fill="#DE9E1D" transform="translate(0,0)"/>
<path d="" fill="#D99A1C" transform="translate(0,0)"/>
<path d="" fill="#050506" transform="translate(0,0)"/>
<path d="" fill="#DD9E1D" transform="translate(0,0)"/>
<path d="" fill="#DA9A1D" transform="translate(0,0)"/>
<path d="" fill="#040405" transform="translate(0,0)"/>
<path d="" fill="#DC9D1D" transform="translate(0,0)"/>
<path d="" fill="#DA9B1C" transform="translate(0,0)"/>
<path d="" fill="#060606" transform="translate(0,0)"/>
<path d="" fill="#DB9D1D" transform="translate(0,0)"/>
<path d="" fill="#DB9C1C" transform="translate(0,0)"/>
<path d="" fill="#080807" transform="translate(0,0)"/>
<path d="" fill="#DB9B1D" transform="translate(0,0)"/>
<path d="" fill="#DC9B1C" transform="translate(0,0)"/>
<path d="" fill="#070706" transform="translate(0,0)"/>
<path d="" fill="#DA9A1C" transform="translate(0,0)"/>
<path d="" fill="#DC9C1C" transform="translate(0,0)"/>
<path d="" fill="#060605" transform="translate(0,0)"/>
<path d="" fill="#E2A01E" transform="translate(0,0)"/>
<path d="" fill="#D99A1D" transform="translate(0,0)"/>
<path d="" fill="#DC9D1C" transform="translate(0,0)"/>
<path d="" fill="#070706" transform="translate(0,0)"/>
<path d="" fill="#DD9D1C" transform="translate(0,0)"/>
<path d="" fill="#060605" transform="translate(0,0)"/>
<path d="" fill="#E09E1E" transform="translate(0,0)"/>
<path d="" fill="#DC9C1E" transform="translate(0,0)"/>
<path d="" fill="#060605" transform="translate(0,0)"/>
<path d="" fill="#E7A51E" transform="translate(0,0)"/>
<path d="" fill="#DD9D1E" transform="translate(0,0)"/>
<path d="" fill="#060605" transform="translate(0,0)"/>
<path d="" fill="#F8AF20" transform="translate(0,0)"/>
<path d="" fill="#DD9D1D" transform="translate(0,0)"/>
<path d="" fill="#DE9D1E" transform="translate(0,0)"/>
<path d="" fill="#F4AA22" transform="translate(0,0)"/>
<path d="" fill="#DE9E1D" transform="translate(0,0)"/>
<path d="" fill="#E2A01E" transform="translate(0,0)"/>
<path d="" fill="#EDA720" transform="translate(0,0)"/>
<path d="" fill="#DE9E1D" transform="translate(0,0)"/>
<path d="" fill="#060605" transform="translate(0,0)"/>
<path d="" fill="#E3A21E" transform="translate(0,0)"/>
<path d="" fill="#EBA61E" transform="translate(0,0)"/>
<path d="" fill="#DE9D1D" transform="translate(0,0)"/>
<path d="" fill="#060605" transform="translate(0,0)"/>
<path d="" fill="#E3A21F" transform="translate(0,0)"/>
<path d="" fill="#EAA51E" transform="translate(0,0)"/>
<path d="" fill="#DE9E1D" transform="translate(0,0)"/>
<path d="" fill="#060605" transform="translate(0,0)"/>
<path d="" fill="#E4A020" transform="translate(0,0)"/>
<path d="" fill="#E8A31D" transform="translate(0,0)"/>
<path d="" fill="#DF9E1D" transform="translate(0,0)"/>
<path d="" fill="#E2A11F" transform="translate(0,0)"/>
<path d="" fill="#E5A31E" transform="translate(0,0)"/>
<path d="" fill="#DF9F1D" transform="translate(0,0)"/>
<path d="" fill="#E09F1D" transform="translate(0,0)"/>
<path d="" fill="#E5A21F" transform="translate(0,0)"/>
<path d="" fill="#DF9F1D" transform="translate(0,0)"/>
<path d="" fill="#060606" transform="translate(0,0)"/>
<path d="" fill="#DD9C1D" transform="translate(0,0)"/>
<path d="" fill="#E2A01D" transform="translate(0,0)"/>
<path d="" fill="#DF9F1D" transform="translate(0,0)"/>
<path d="" fill="#050505" transform="translate(0,0)"/>
<path d="" fill="#E6A21E" transform="translate(0,0)"/>
<path d="" fill="#E09F1E" transform="translate(0,0)"/>
<path d="" fill="#E1A11F" transform="translate(0,0)"/>
<path d="" fill="#DF9F1D" transform="translate(0,0)"/>
<path d="" fill="#070705" transform="translate(0,0)"/>
<path d="" fill="#E09F1E" transform="translate(0,0)"/>
<path d="" fill="#060605" transform="translate(0,0)"/>
<path d="" fill="#E19F1E" transform="translate(0,0)"/>
<path d="" fill="#E09F1E" transform="translate(0,0)"/>
<path d="" fill="#E19F1D" transform="translate(0,0)"/>
<path d="" fill="#060605" transform="translate(0,0)"/>
<path d="" fill="#E0A01E" transform="translate(0,0)"/>
<path d="" fill="#E09F1E" transform="translate(0,0)"/>
<path d="" fill="#060605" transform="translate(0,0)"/>
<path d="" fill="#E0A01D" transform="translate(0,0)"/>
<path d="" fill="#E19F1D" transform="translate(0,0)"/>
<path d="" fill="#E09F1E" transform="translate(0,0)"/>
<path d="" fill="#070705" transform="translate(0,0)"/>
<path d="" fill="#E09F1E" transform="translate(0,0)"/>
<path d="" fill="#E09F1E" transform="translate(0,0)"/>
<path d="" fill="#070705" transform="translate(0,0)"/>
<path d="" fill="#E19F1E" transform="translate(0,0)"/>
<path d="" fill="#E09F1E" transform="translate(0,0)"/>
<path d="" fill="#E19F1E" transform="translate(0,0)"/>
<path d="" fill="#E0A01E" transform="translate(0,0)"/>
<path d="" fill="#E2A01F" transform="translate(0,0)"/>
<path d="" fill="#E2A01E" transform="translate(0,0)"/>
<path d="" fill="#E3A11D" transform="translate(0,0)"/>
<path d="" fill="#E5A31D" transform="translate(0,0)"/>
<path d="" fill="#E5A21F" transform="translate(0,0)"/>
<path d="" fill="#E4A21F" transform="translate(0,0)"/>
<path d="" fill="#E6A21E" transform="translate(0,0)"/>
<path d="" fill="#E8A41F" transform="translate(0,0)"/>
<path d="" fill="#EAA520" transform="translate(0,0)"/>
<path d="" fill="#EAA61E" transform="translate(0,0)"/>
<path d="" fill="#EAA71E" transform="translate(0,0)"/>
<path d="" fill="#ECA71F" transform="translate(0,0)"/>
<path d="" fill="#EBA620" transform="translate(0,0)"/>
<path d="" fill="#F0AC21" transform="translate(0,0)"/>
<path d="" fill="#F4AF21" transform="translate(0,0)"/>
<path d="" fill="#FFB321" transform="translate(0,0)"/>
<path d="" fill="#FFBA24" transform="translate(0,0)"/>
<path d="" fill="#DF9D1E" transform="translate(0,0)"/>
<path d="" fill="#E8A51F" transform="translate(0,0)"/>
<path d="" fill="#EDA91F" transform="translate(0,0)"/>
<path d="" fill="#E3A11E" transform="translate(0,0)"/>
<path d="" fill="#9F9D9C" transform="translate(0,0)"/>
<path d="" fill="#9E9C9A" transform="translate(0,0)"/>
<path d="" fill="#9F9E9D" transform="translate(0,0)"/>
<path d="" fill="#A29F9F" transform="translate(0,0)"/>
<path d="" fill="#9E9C9A" transform="translate(0,0)"/>
<path d="" fill="#A19F9E" transform="translate(0,0)"/>
<path d="" fill="#989596" transform="translate(0,0)"/>
<path d="" fill="#9E9C9A" transform="translate(0,0)"/>
<path d="" fill="#9A9797" transform="translate(0,0)"/>
<path d="" fill="#A5A2A3" transform="translate(0,0)"/>
<path d="" fill="#989292" transform="translate(0,0)"/>
<path d="" fill="#9A9997" transform="translate(0,0)"/>
<path d="" fill="#9D9C9B" transform="translate(0,0)"/>
<path d="" fill="#9A9898" transform="translate(0,0)"/>
<path d="" fill="#9F9E9C" transform="translate(0,0)"/>
<path d="" fill="#9E9C9C" transform="translate(0,0)"/>
<path d="" fill="#A2A19F" transform="translate(0,0)"/>
<path d="" fill="#9D9A9A" transform="translate(0,0)"/>
<path d="" fill="#9F9D9D" transform="translate(0,0)"/>
<path d="" fill="#9E9D9C" transform="translate(0,0)"/>
<path d="" fill="#B3B1B0" transform="translate(0,0)"/>
<path d="" fill="#B2B0AF" transform="translate(0,0)"/>
<path d="" fill="#B3B0AF" transform="translate(0,0)"/>
<path d="" fill="#B2B1AF" transform="translate(0,0)"/>
<path d="" fill="#B2B0AF" transform="translate(0,0)"/>
<path d="" fill="#B2B1B0" transform="translate(0,0)"/>
<path d="" fill="#B2B0AF" transform="translate(0,0)"/>
<path d="" fill="#B2B1AF" transform="translate(0,0)"/>
<path d="" fill="#B2B0B0" transform="translate(0,0)"/>
<path d="" fill="#B2B0AF" transform="translate(0,0)"/>
<path d="" fill="#B2B0B0" transform="translate(0,0)"/>
<path d="" fill="#B3B0AF" transform="translate(0,0)"/>
<path d="" fill="#B2B1B0" transform="translate(0,0)"/>
<path d="" fill="#B2B0B0" transform="translate(0,0)"/>
<path d="" fill="#B2B0AF" transform="translate(0,0)"/>
<path d="" fill="#B2B1B0" transform="translate(0,0)"/>
<path d="" fill="#B2B0AF" transform="translate(0,0)"/>
<path d="" fill="#B2B0AF" transform="translate(0,0)"/>
<path d="" fill="#B2B1B0" transform="translate(0,0)"/>
<path d="" fill="#EDB035" transform="translate(0,0)"/>
<path d="" fill="#F0B33C" transform="translate(0,0)"/>
<path d="" fill="#EBAD33" transform="translate(0,0)"/>
<path d="" fill="#EEB23A" transform="translate(0,0)"/>
<path d="" fill="#E9AD36" transform="translate(0,0)"/>
<path d="" fill="#E8AC35" transform="translate(0,0)"/>
<path d="" fill="#E8AB35" transform="translate(0,0)"/>
<path d="" fill="#E7AB34" transform="translate(0,0)"/>
<path d="" fill="#E7AC34" transform="translate(0,0)"/>
<path d="" fill="#E8AA34" transform="translate(0,0)"/>
<path d="" fill="#E7AA33" transform="translate(0,0)"/>
<path d="" fill="#E7AA32" transform="translate(0,0)"/>
<path d="" fill="#E8AA31" transform="translate(0,0)"/>
<path d="" fill="#E8AA31" transform="translate(0,0)"/>
<path d="" fill="#E7A930" transform="translate(0,0)"/>
<path d="" fill="#E7AA2F" transform="translate(0,0)"/>
<path d="" fill="#E7A92E" transform="translate(0,0)"/>
<path d="" fill="#E7A92E" transform="translate(0,0)"/>
<path d="" fill="#E7A92D" transform="translate(0,0)"/>
<path d="" fill="#222221" transform="translate(0,0)"/>
<path d="" fill="#E7A92D" transform="translate(0,0)"/>
<path d="" fill="#E7A92B" transform="translate(0,0)"/>
<path d="" fill="#EAB84D" transform="translate(0,0)"/>
<path d="" fill="#ECB749" transform="translate(0,0)"/>
<path d="" fill="#ECB347" transform="translate(0,0)"/>
<path d="" fill="#EAB142" transform="translate(0,0)"/>
<path d="" fill="#222223" transform="translate(0,0)"/>
<path d="" fill="#E9B241" transform="translate(0,0)"/>
<path d="" fill="#E8B03E" transform="translate(0,0)"/>
<path d="" fill="#222221" transform="translate(0,0)"/>
<path d="" fill="#E8B13E" transform="translate(0,0)"/>
<path d="" fill="#EAB13C" transform="translate(0,0)"/>
<path d="" fill="#20201E" transform="translate(0,0)"/>
<path d="" fill="#EAAE3A" transform="translate(0,0)"/>
<path d="" fill="#E9AF3A" transform="translate(0,0)"/>
<path d="" fill="#E8AF39" transform="translate(0,0)"/>
<path d="" fill="#222221" transform="translate(0,0)"/>
<path d="" fill="#E8AD38" transform="translate(0,0)"/>
<path d="" fill="#E8AC37" transform="translate(0,0)"/>
<path d="" fill="#E8AD38" transform="translate(0,0)"/>
<path d="" fill="#E9AF38" transform="translate(0,0)"/>
<path d="" fill="#E8AD38" transform="translate(0,0)"/>
<path d="" fill="#232322" transform="translate(0,0)"/>
<path d="" fill="#E8AD37" transform="translate(0,0)"/>
<path d="" fill="#E9AD36" transform="translate(0,0)"/>
<path d="" fill="#EAAE39" transform="translate(0,0)"/>
<path d="" fill="#E8AD36" transform="translate(0,0)"/>
<path d="" fill="#1C1C1C" transform="translate(0,0)"/>
<path d="" fill="#EAAF39" transform="translate(0,0)"/>
<path d="" fill="#EAB243" transform="translate(0,0)"/>
<path d="" fill="#E8AC36" transform="translate(0,0)"/>
<path d="" fill="#212121" transform="translate(0,0)"/>
<path d="" fill="#E9AA30" transform="translate(0,0)"/>
<path d="" fill="#E8AD36" transform="translate(0,0)"/>
<path d="" fill="#E8AA30" transform="translate(0,0)"/>
<path d="" fill="#E8AC33" transform="translate(0,0)"/>
<path d="" fill="#E8AC36" transform="translate(0,0)"/>
<path d="" fill="#E8AB31" transform="translate(0,0)"/>
<path d="" fill="#E9AD33" transform="translate(0,0)"/>
<path d="" fill="#E8AD36" transform="translate(0,0)"/>
<path d="" fill="#1D1D1C" transform="translate(0,0)"/>
<path d="" fill="#E7AA2E" transform="translate(0,0)"/>
<path d="" fill="#E9AC35" transform="translate(0,0)"/>
<path d="" fill="#E8AD36" transform="translate(0,0)"/>
<path d="" fill="#222220" transform="translate(0,0)"/>
<path d="" fill="#E9AD35" transform="translate(0,0)"/>
<path d="" fill="#E9AD36" transform="translate(0,0)"/>
<path d="" fill="#252523" transform="translate(0,0)"/>
<path d="" fill="#EBB244" transform="translate(0,0)"/>
<path d="" fill="#E9AD36" transform="translate(0,0)"/>
<path d="" fill="#E8AD35" transform="translate(0,0)"/>
<path d="" fill="#EAAE39" transform="translate(0,0)"/>
<path d="" fill="#E9AD36" transform="translate(0,0)"/>
<path d="" fill="#E9AC35" transform="translate(0,0)"/>
<path d="" fill="#EAAD33" transform="translate(0,0)"/>
<path d="" fill="#EAAD36" transform="translate(0,0)"/>
<path d="" fill="#E8AC35" transform="translate(0,0)"/>
<path d="" fill="#1B1B1A" transform="translate(0,0)"/>
<path d="" fill="#E9AE36" transform="translate(0,0)"/>
<path d="" fill="#E9AD35" transform="translate(0,0)"/>
<path d="" fill="#1E1E1D" transform="translate(0,0)"/>
<path d="" fill="#E9AF37" transform="translate(0,0)"/>
<path d="" fill="#E9AD36" transform="translate(0,0)"/>
<path d="" fill="#E9AC35" transform="translate(0,0)"/>
<path d="" fill="#20201F" transform="translate(0,0)"/>
<path d="" fill="#E9AE37" transform="translate(0,0)"/>
<path d="" fill="#E8AC34" transform="translate(0,0)"/>
<path d="" fill="#212120" transform="translate(0,0)"/>
<path d="" fill="#EAAE37" transform="translate(0,0)"/>
<path d="" fill="#E7AB34" transform="translate(0,0)"/>
<path d="" fill="#212120" transform="translate(0,0)"/>
<path d="" fill="#E9AD37" transform="translate(0,0)"/>
<path d="" fill="#E6AB34" transform="translate(0,0)"/>
<path d="" fill="#222221" transform="translate(0,0)"/>
<path d="" fill="#E9AD36" transform="translate(0,0)"/>
<path d="" fill="#E8AB34" transform="translate(0,0)"/>
<path d="" fill="#232322" transform="translate(0,0)"/>
<path d="" fill="#E9AD37" transform="translate(0,0)"/>
<path d="" fill="#E8AB33" transform="translate(0,0)"/>
<path d="" fill="#242424" transform="translate(0,0)"/>
<path d="" fill="#E9AD36" transform="translate(0,0)"/>
<path d="" fill="#E8AB32" transform="translate(0,0)"/>
<path d="" fill="#242424" transform="translate(0,0)"/>
<path d="" fill="#E9AE37" transform="translate(0,0)"/>
<path d="" fill="#E9AB31" transform="translate(0,0)"/>
<path d="" fill="#242424" transform="translate(0,0)"/>
<path d="" fill="#E9AE37" transform="translate(0,0)"/>
<path d="" fill="#E8AB31" transform="translate(0,0)"/>
<path d="" fill="#252524" transform="translate(0,0)"/>
<path d="" fill="#E9AD38" transform="translate(0,0)"/>
<path d="" fill="#E7AA30" transform="translate(0,0)"/>
<path d="" fill="#262625" transform="translate(0,0)"/>
<path d="" fill="#E9AE38" transform="translate(0,0)"/>
<path d="" fill="#E7AB2E" transform="translate(0,0)"/>
<path d="" fill="#272726" transform="translate(0,0)"/>
<path d="" fill="#E8AF39" transform="translate(0,0)"/>
<path d="" fill="#E7AA2E" transform="translate(0,0)"/>
<path d="" fill="#272726" transform="translate(0,0)"/>
<path d="" fill="#EAAF3A" transform="translate(0,0)"/>
<path d="" fill="#E8AA2E" transform="translate(0,0)"/>
<path d="" fill="#272727" transform="translate(0,0)"/>
<path d="" fill="#EAB03A" transform="translate(0,0)"/>
<path d="" fill="#E8AA2D" transform="translate(0,0)"/>
<path d="" fill="#282827" transform="translate(0,0)"/>
<path d="" fill="#EAB03B" transform="translate(0,0)"/>
<path d="" fill="#E8AA2D" transform="translate(0,0)"/>
<path d="" fill="#282826" transform="translate(0,0)"/>
<path d="" fill="#EBB03C" transform="translate(0,0)"/>
<path d="" fill="#E8AA2D" transform="translate(0,0)"/>
<path d="" fill="#272726" transform="translate(0,0)"/>
<path d="" fill="#EBB03E" transform="translate(0,0)"/>
<path d="" fill="#282826" transform="translate(0,0)"/>
<path d="" fill="#EBB140" transform="translate(0,0)"/>
<path d="" fill="#282827" transform="translate(0,0)"/>
<path d="" fill="#EBB343" transform="translate(0,0)"/>
<path d="" fill="#282827" transform="translate(0,0)"/>
<path d="" fill="#EBB548" transform="translate(0,0)"/>
<path d="" fill="#282827" transform="translate(0,0)"/>
<path d="" fill="#EBB64C" transform="translate(0,0)"/>
<path d="" fill="#EBB64A" transform="translate(0,0)"/>
<path d="" fill="#282827" transform="translate(0,0)"/>
<path d="" fill="#EAB345" transform="translate(0,0)"/>
<path d="" fill="#282826" transform="translate(0,0)"/>
<path d="" fill="#E9B245" transform="translate(0,0)"/>
<path d="" fill="#272726" transform="translate(0,0)"/>
<path d="" fill="#E5AF41" transform="translate(0,0)"/>
<path d="" fill="#272725" transform="translate(0,0)"/>
<path d="" fill="#E8AA2E" transform="translate(0,0)"/>
<path d="" fill="#E5AD3E" transform="translate(0,0)"/>
<path d="" fill="#272726" transform="translate(0,0)"/>
<path d="" fill="#E9AB2F" transform="translate(0,0)"/>
<path d="" fill="#E5AC3B" transform="translate(0,0)"/>
<path d="" fill="#272727" transform="translate(0,0)"/>
<path d="" fill="#E9AC30" transform="translate(0,0)"/>
<path d="" fill="#E4AD3C" transform="translate(0,0)"/>
<path d="" fill="#272728" transform="translate(0,0)"/>
<path d="" fill="#E9AE36" transform="translate(0,0)"/>
<path d="" fill="#E9AC31" transform="translate(0,0)"/>
<path d="" fill="#E5AA3A" transform="translate(0,0)"/>
<path d="" fill="#272728" transform="translate(0,0)"/>
<path d="" fill="#E9AC32" transform="translate(0,0)"/>
<path d="" fill="#E4A837" transform="translate(0,0)"/>
<path d="" fill="#272728" transform="translate(0,0)"/>
<path d="" fill="#E9AE38" transform="translate(0,0)"/>
<path d="" fill="#E9AC32" transform="translate(0,0)"/>
<path d="" fill="#E1A836" transform="translate(0,0)"/>
<path d="" fill="#282828" transform="translate(0,0)"/>
<path d="" fill="#EAAC33" transform="translate(0,0)"/>
<path d="" fill="#E0A837" transform="translate(0,0)"/>
<path d="" fill="#282827" transform="translate(0,0)"/>
<path d="" fill="#E8AC35" transform="translate(0,0)"/>
<path d="" fill="#E9AC34" transform="translate(0,0)"/>
<path d="" fill="#DFA835" transform="translate(0,0)"/>
<path d="" fill="#292927" transform="translate(0,0)"/>
<path d="" fill="#E8AE39" transform="translate(0,0)"/>
<path d="" fill="#E8AC34" transform="translate(0,0)"/>
<path d="" fill="#DEA735" transform="translate(0,0)"/>
<path d="" fill="#282827" transform="translate(0,0)"/>
<path d="" fill="#E9AC36" transform="translate(0,0)"/>
<path d="" fill="#DFA635" transform="translate(0,0)"/>
<path d="" fill="#282828" transform="translate(0,0)"/>
<path d="" fill="#EAAD36" transform="translate(0,0)"/>
<path d="" fill="#DEA634" transform="translate(0,0)"/>
<path d="" fill="#272728" transform="translate(0,0)"/>
<path d="" fill="#E8AD34" transform="translate(0,0)"/>
<path d="" fill="#EAAD36" transform="translate(0,0)"/>
<path d="" fill="#DDA534" transform="translate(0,0)"/>
<path d="" fill="#272728" transform="translate(0,0)"/>
<path d="" fill="#E9AE36" transform="translate(0,0)"/>
<path d="" fill="#EAAD36" transform="translate(0,0)"/>
<path d="" fill="#DCA433" transform="translate(0,0)"/>
<path d="" fill="#272728" transform="translate(0,0)"/>
<path d="" fill="#E9AD37" transform="translate(0,0)"/>
<path d="" fill="#EAAD36" transform="translate(0,0)"/>
<path d="" fill="#D9A233" transform="translate(0,0)"/>
<path d="" fill="#272728" transform="translate(0,0)"/>
<path d="" fill="#E9AD38" transform="translate(0,0)"/>
<path d="" fill="#EAAE35" transform="translate(0,0)"/>
<path d="" fill="#D8A133" transform="translate(0,0)"/>
<path d="" fill="#282827" transform="translate(0,0)"/>
<path d="" fill="#E9AD37" transform="translate(0,0)"/>
<path d="" fill="#E9AD36" transform="translate(0,0)"/>
<path d="" fill="#D7A032" transform="translate(0,0)"/>
<path d="" fill="#282827" transform="translate(0,0)"/>
<path d="" fill="#E8AD38" transform="translate(0,0)"/>
<path d="" fill="#E9AE36" transform="translate(0,0)"/>
<path d="" fill="#D59E31" transform="translate(0,0)"/>
<path d="" fill="#2A2A29" transform="translate(0,0)"/>
<path d="" fill="#E8AE37" transform="translate(0,0)"/>
<path d="" fill="#E9AE36" transform="translate(0,0)"/>
<path d="" fill="#D49D30" transform="translate(0,0)"/>
<path d="" fill="#2B2B29" transform="translate(0,0)"/>
<path d="" fill="#E9AE36" transform="translate(0,0)"/>
<path d="" fill="#E9AE37" transform="translate(0,0)"/>
<path d="" fill="#D29D30" transform="translate(0,0)"/>
<path d="" fill="#2B2B2A" transform="translate(0,0)"/>
<path d="" fill="#E9AE36" transform="translate(0,0)"/>
<path d="" fill="#E9AE37" transform="translate(0,0)"/>
<path d="" fill="#CF9B2F" transform="translate(0,0)"/>
<path d="" fill="#2C2C2B" transform="translate(0,0)"/>
<path d="" fill="#E9AE37" transform="translate(0,0)"/>
<path d="" fill="#E8AE37" transform="translate(0,0)"/>
<path d="" fill="#CC972F" transform="translate(0,0)"/>
<path d="" fill="#2C2C2A" transform="translate(0,0)"/>
<path d="" fill="#E9AD38" transform="translate(0,0)"/>
<path d="" fill="#E9AD38" transform="translate(0,0)"/>
<path d="" fill="#C8942E" transform="translate(0,0)"/>
<path d="" fill="#2C2C2A" transform="translate(0,0)"/>
<path d="" fill="#E9AE38" transform="translate(0,0)"/>
<path d="" fill="#E9AD38" transform="translate(0,0)"/>
<path d="" fill="#C5922E" transform="translate(0,0)"/>
<path d="" fill="#2B2B2B" transform="translate(0,0)"/>
<path d="" fill="#E9AE38" transform="translate(0,0)"/>
<path d="" fill="#E9AE38" transform="translate(0,0)"/>
<path d="" fill="#C08F2D" transform="translate(0,0)"/>
<path d="" fill="#2A2A2B" transform="translate(0,0)"/>
<path d="" fill="#E9AE37" transform="translate(0,0)"/>
<path d="" fill="#E9AF39" transform="translate(0,0)"/>
<path d="" fill="#C18F2D" transform="translate(0,0)"/>
<path d="" fill="#2A2A2B" transform="translate(0,0)"/>
<path d="" fill="#E9AE38" transform="translate(0,0)"/>
<path d="" fill="#EAAF3A" transform="translate(0,0)"/>
<path d="" fill="#C3902E" transform="translate(0,0)"/>
<path d="" fill="#2A2A2B" transform="translate(0,0)"/>
<path d="" fill="#E9AF39" transform="translate(0,0)"/>
<path d="" fill="#E9B03F" transform="translate(0,0)"/>
<path d="" fill="#C3902F" transform="translate(0,0)"/>
<path d="" fill="#2A2A2A" transform="translate(0,0)"/>
<path d="" fill="#E8AE39" transform="translate(0,0)"/>
<path d="" fill="#AD832F" transform="translate(0,0)"/>
<path d="" fill="#2A2A29" transform="translate(0,0)"/>
<path d="" fill="#E9AC38" transform="translate(0,0)"/>
<path d="" fill="#E9AD36" transform="translate(0,0)"/>
<path d="" fill="#2B2B29" transform="translate(0,0)"/>
<path d="" fill="#EAAF39" transform="translate(0,0)"/>
<path d="" fill="#E7AB33" transform="translate(0,0)"/>
<path d="" fill="#2C2C2A" transform="translate(0,0)"/>
<path d="" fill="#EAAF3A" transform="translate(0,0)"/>
<path d="" fill="#E9AD37" transform="translate(0,0)"/>
<path d="" fill="#2D2D2A" transform="translate(0,0)"/>
<path d="" fill="#EAAE3B" transform="translate(0,0)"/>
<path d="" fill="#2C2C2D" transform="translate(0,0)"/>
<path d="" fill="#E9AF3A" transform="translate(0,0)"/>
<path d="" fill="#2C2C2D" transform="translate(0,0)"/>
<path d="" fill="#E9B03B" transform="translate(0,0)"/>
<path d="" fill="#2D2D2B" transform="translate(0,0)"/>
<path d="" fill="#EAB03D" transform="translate(0,0)"/>
<path d="" fill="#2D2D2B" transform="translate(0,0)"/>
<path d="" fill="#E9AF3D" transform="translate(0,0)"/>
<path d="" fill="#2D2D2B" transform="translate(0,0)"/>
<path d="" fill="#EAB03F" transform="translate(0,0)"/>
<path d="" fill="#2D2D2B" transform="translate(0,0)"/>
<path d="" fill="#EBB140" transform="translate(0,0)"/>
<path d="" fill="#2D2D2B" transform="translate(0,0)"/>
<path d="" fill="#E8B242" transform="translate(0,0)"/>
<path d="" fill="#2E2E2C" transform="translate(0,0)"/>
<path d="" fill="#E7B444" transform="translate(0,0)"/>
<path d="" fill="#2E2E2C" transform="translate(0,0)"/>
<path d="" fill="#EAB545" transform="translate(0,0)"/>
<path d="" fill="#2E2E2C" transform="translate(0,0)"/>
<path d="" fill="#ECB647" transform="translate(0,0)"/>
<path d="" fill="#2F2F2D" transform="translate(0,0)"/>
<path d="" fill="#ECB74C" transform="translate(0,0)"/>
<path d="" fill="#2F2F2D" transform="translate(0,0)"/>
<path d="" fill="#2F2F2D" transform="translate(0,0)"/>
<path d="" fill="#2F2F2D" transform="translate(0,0)"/>
<path d="" fill="#2F2F2D" transform="translate(0,0)"/>
<path d="" fill="#30302E" transform="translate(0,0)"/>
<path d="" fill="#E9AA2D" transform="translate(0,0)"/>
<path d="" fill="#31312F" transform="translate(0,0)"/>
<path d="" fill="#E8AA2E" transform="translate(0,0)"/>
<path d="" fill="#323230" transform="translate(0,0)"/>
<path d="" fill="#E8AB2E" transform="translate(0,0)"/>
<path d="" fill="#333331" transform="translate(0,0)"/>
<path d="" fill="#E8AB2F" transform="translate(0,0)"/>
<path d="" fill="#333331" transform="translate(0,0)"/>
<path d="" fill="#E8AB2F" transform="translate(0,0)"/>
<path d="" fill="#343432" transform="translate(0,0)"/>
<path d="" fill="#E8AB30" transform="translate(0,0)"/>
<path d="" fill="#343432" transform="translate(0,0)"/>
<path d="" fill="#E8AB31" transform="translate(0,0)"/>
<path d="" fill="#343432" transform="translate(0,0)"/>
<path d="" fill="#E8AB31" transform="translate(0,0)"/>
<path d="" fill="#353532" transform="translate(0,0)"/>
<path d="" fill="#E9AC32" transform="translate(0,0)"/>
<path d="" fill="#353533" transform="translate(0,0)"/>
<path d="" fill="#E9AC32" transform="translate(0,0)"/>
<path d="" fill="#363633" transform="translate(0,0)"/>
<path d="" fill="#E8AC33" transform="translate(0,0)"/>
<path d="" fill="#333333" transform="translate(0,0)"/>
<path d="" fill="#E9AD33" transform="translate(0,0)"/>
<path d="" fill="#313133" transform="translate(0,0)"/>
<path d="" fill="#E9AD34" transform="translate(0,0)"/>
<path d="" fill="#323233" transform="translate(0,0)"/>
<path d="" fill="#E9AD34" transform="translate(0,0)"/>
<path d="" fill="#333332" transform="translate(0,0)"/>
<path d="" fill="#E9AD34" transform="translate(0,0)"/>
<path d="" fill="#343434" transform="translate(0,0)"/>
<path d="" fill="#E9AD35" transform="translate(0,0)"/>
<path d="" fill="#343437" transform="translate(0,0)"/>
<path d="" fill="#E9AC35" transform="translate(0,0)"/>
<path d="" fill="#333339" transform="translate(0,0)"/>
<path d="" fill="#E8AC35" transform="translate(0,0)"/>
<path d="" fill="#353538" transform="translate(0,0)"/>
<path d="" fill="#E9AC36" transform="translate(0,0)"/>
<path d="" fill="#373737" transform="translate(0,0)"/>
<path d="" fill="#E9AD35" transform="translate(0,0)"/>
<path d="" fill="#373737" transform="translate(0,0)"/>
<path d="" fill="#E8AD35" transform="translate(0,0)"/>
<path d="" fill="#373737" transform="translate(0,0)"/>
<path d="" fill="#E9AD35" transform="translate(0,0)"/>
<path d="" fill="#373737" transform="translate(0,0)"/>
<path d="" fill="#EAAD36" transform="translate(0,0)"/>
<path d="" fill="#373738" transform="translate(0,0)"/>
<path d="" fill="#E8AD36" transform="translate(0,0)"/>
<path d="" fill="#393939" transform="translate(0,0)"/>
<path d="" fill="#E8AD35" transform="translate(0,0)"/>
<path d="" fill="#39393A" transform="translate(0,0)"/>
<path d="" fill="#E8AC34" transform="translate(0,0)"/>
<path d="" fill="#3A3A3A" transform="translate(0,0)"/>
<path d="" fill="#E8AC32" transform="translate(0,0)"/>
<path d="" fill="#3A3A3B" transform="translate(0,0)"/>
<path d="" fill="#3A3A3A" transform="translate(0,0)"/>
<path d="" fill="#E9AF3A" transform="translate(0,0)"/>
<path d="" fill="#3A3A3C" transform="translate(0,0)"/>
<path d="" fill="#E9AE39" transform="translate(0,0)"/>
<path d="" fill="#E8AC36" transform="translate(0,0)"/>
<path d="" fill="#EAB03B" transform="translate(0,0)"/>
<path d="" fill="#E9AD36" transform="translate(0,0)"/>
<path d="" fill="#E9AE38" transform="translate(0,0)"/>
<path d="" fill="#E9AD37" transform="translate(0,0)"/>
<path d="" fill="#E9AE38" transform="translate(0,0)"/>
<path d="" fill="#E9AD39" transform="translate(0,0)"/>
<path d="" fill="#E9AF39" transform="translate(0,0)"/>
<path d="" fill="#E9AE38" transform="translate(0,0)"/>
<path d="" fill="#5B4A28" transform="translate(0,0)"/>
<path d="" fill="#232322" transform="translate(0,0)"/>
<path d="" fill="#232322" transform="translate(0,0)"/>
<path d="" fill="#232322" transform="translate(0,0)"/>
<path d="" fill="#161616" transform="translate(0,0)"/>
<path d="" fill="#232321" transform="translate(0,0)"/>
<path d="" fill="#151515" transform="translate(0,0)"/>
<path d="" fill="#232321" transform="translate(0,0)"/>
<path d="" fill="#151515" transform="translate(0,0)"/>
<path d="" fill="#232321" transform="translate(0,0)"/>
<path d="" fill="#151515" transform="translate(0,0)"/>
<path d="" fill="#222221" transform="translate(0,0)"/>
<path d="" fill="#151515" transform="translate(0,0)"/>
<path d="" fill="#222221" transform="translate(0,0)"/>
<path d="" fill="#151515" transform="translate(0,0)"/>
<path d="" fill="#222221" transform="translate(0,0)"/>
<path d="" fill="#151515" transform="translate(0,0)"/>
<path d="" fill="#222221" transform="translate(0,0)"/>
<path d="" fill="#151515" transform="translate(0,0)"/>
<path d="" fill="#222221" transform="translate(0,0)"/>
<path d="" fill="#171715" transform="translate(0,0)"/>
<path d="" fill="#222221" transform="translate(0,0)"/>
<path d="" fill="#191915" transform="translate(0,0)"/>
<path d="" fill="#222221" transform="translate(0,0)"/>
<path d="" fill="#191915" transform="translate(0,0)"/>
<path d="" fill="#222221" transform="translate(0,0)"/>
<path d="" fill="#191916" transform="translate(0,0)"/>
<path d="" fill="#222221" transform="translate(0,0)"/>
<path d="" fill="#181817" transform="translate(0,0)"/>
<path d="" fill="#222221" transform="translate(0,0)"/>
<path d="" fill="#181817" transform="translate(0,0)"/>
<path d="" fill="#222221" transform="translate(0,0)"/>
<path d="" fill="#181817" transform="translate(0,0)"/>
<path d="" fill="#222221" transform="translate(0,0)"/>
<path d="" fill="#181817" transform="translate(0,0)"/>
<path d="" fill="#222221" transform="translate(0,0)"/>
<path d="" fill="#181816" transform="translate(0,0)"/>
<path d="" fill="#222221" transform="translate(0,0)"/>
<path d="" fill="#181816" transform="translate(0,0)"/>
<path d="" fill="#222221" transform="translate(0,0)"/>
<path d="" fill="#181816" transform="translate(0,0)"/>
<path d="" fill="#222221" transform="translate(0,0)"/>
<path d="" fill="#181816" transform="translate(0,0)"/>
<path d="" fill="#222221" transform="translate(0,0)"/>
<path d="" fill="#191916" transform="translate(0,0)"/>
<path d="" fill="#222220" transform="translate(0,0)"/>
<path d="" fill="#191916" transform="translate(0,0)"/>
<path d="" fill="#222221" transform="translate(0,0)"/>
<path d="" fill="#191916" transform="translate(0,0)"/>
<path d="" fill="#212120" transform="translate(0,0)"/>
<path d="" fill="#191917" transform="translate(0,0)"/>
<path d="" fill="#212120" transform="translate(0,0)"/>
<path d="" fill="#191919" transform="translate(0,0)"/>
<path d="" fill="#212120" transform="translate(0,0)"/>
<path d="" fill="#19191A" transform="translate(0,0)"/>
<path d="" fill="#212120" transform="translate(0,0)"/>
<path d="" fill="#19191A" transform="translate(0,0)"/>
<path d="" fill="#212121" transform="translate(0,0)"/>
<path d="" fill="#19191A" transform="translate(0,0)"/>
<path d="" fill="#212120" transform="translate(0,0)"/>
<path d="" fill="#191919" transform="translate(0,0)"/>
<path d="" fill="#212120" transform="translate(0,0)"/>
<path d="" fill="#191919" transform="translate(0,0)"/>
<path d="" fill="#212121" transform="translate(0,0)"/>
<path d="" fill="#1A1A19" transform="translate(0,0)"/>
<path d="" fill="#212121" transform="translate(0,0)"/>
<path d="" fill="#1A1A19" transform="translate(0,0)"/>
<path d="" fill="#212120" transform="translate(0,0)"/>
<path d="" fill="#1A1A19" transform="translate(0,0)"/>
<path d="" fill="#212120" transform="translate(0,0)"/>
<path d="" fill="#1A1A19" transform="translate(0,0)"/>
<path d="" fill="#212120" transform="translate(0,0)"/>
<path d="" fill="#1A1A19" transform="translate(0,0)"/>
<path d="" fill="#212120" transform="translate(0,0)"/>
<path d="" fill="#1A1A19" transform="translate(0,0)"/>
<path d="" fill="#212120" transform="translate(0,0)"/>
<path d="" fill="#1A1A19" transform="translate(0,0)"/>
<path d="" fill="#212121" transform="translate(0,0)"/>
<path d="" fill="#1A1A1A" transform="translate(0,0)"/>
<path d="" fill="#212120" transform="translate(0,0)"/>
<path d="" fill="#1A1A19" transform="translate(0,0)"/>
<path d="" fill="#212120" transform="translate(0,0)"/>
<path d="" fill="#1A1A19" transform="translate(0,0)"/>
<path d="" fill="#212120" transform="translate(0,0)"/>
<path d="" fill="#1B1B18" transform="translate(0,0)"/>
<path d="" fill="#212120" transform="translate(0,0)"/>
<path d="" fill="#1B1B18" transform="translate(0,0)"/>
<path d="" fill="#212120" transform="translate(0,0)"/>
<path d="" fill="#1B1B18" transform="translate(0,0)"/>
<path d="" fill="#222220" transform="translate(0,0)"/>
<path d="" fill="#1B1B18" transform="translate(0,0)"/>
<path d="" fill="#212120" transform="translate(0,0)"/>
<path d="" fill="#1B1B18" transform="translate(0,0)"/>
<path d="" fill="#21211F" transform="translate(0,0)"/>
<path d="" fill="#1B1B19" transform="translate(0,0)"/>
<path d="" fill="#1E1E1D" transform="translate(0,0)"/>
<path d="" fill="#1B1B19" transform="translate(0,0)"/>
<path d="" fill="#1B1B19" transform="translate(0,0)"/>
<path d="" fill="#1A1A19" transform="translate(0,0)"/>
<path d="" fill="#252523" transform="translate(0,0)"/>
<path d="" fill="#1A1A19" transform="translate(0,0)"/>
<path d="" fill="#1F1F1E" transform="translate(0,0)"/>
<path d="" fill="#1A1A19" transform="translate(0,0)"/>
<path d="" fill="#1B1B19" transform="translate(0,0)"/>
<path d="" fill="#232322" transform="translate(0,0)"/>
<path d="" fill="#1B1B19" transform="translate(0,0)"/>
<path d="" fill="#1B1B19" transform="translate(0,0)"/>
<path d="" fill="#1B1B19" transform="translate(0,0)"/>
<path d="" fill="#1B1B19" transform="translate(0,0)"/>
<path d="" fill="#1B1B1A" transform="translate(0,0)"/>
<path d="" fill="#1B1B1A" transform="translate(0,0)"/>
<path d="" fill="#222220" transform="translate(0,0)"/>
<path d="" fill="#1B1B1A" transform="translate(0,0)"/>
<path d="" fill="#1B1B1A" transform="translate(0,0)"/>
<path d="" fill="#1B1B1A" transform="translate(0,0)"/>
<path d="" fill="#1C1C1A" transform="translate(0,0)"/>
<path d="" fill="#1C1C1A" transform="translate(0,0)"/>
<path d="" fill="#1C1C1B" transform="translate(0,0)"/>
<path d="" fill="#1C1C1B" transform="translate(0,0)"/>
<path d="" fill="#1C1C1B" transform="translate(0,0)"/>
<path d="" fill="#1C1C1B" transform="translate(0,0)"/>
<path d="" fill="#1C1C1B" transform="translate(0,0)"/>
<path d="" fill="#1C1C1B" transform="translate(0,0)"/>
<path d="" fill="#1B1B1B" transform="translate(0,0)"/>
<path d="" fill="#1B1B1B" transform="translate(0,0)"/>
<path d="" fill="#1A1A1A" transform="translate(0,0)"/>
<path d="" fill="#1B1B1A" transform="translate(0,0)"/>
<path d="" fill="#1B1B1A" transform="translate(0,0)"/>
<path d="" fill="#1B1B1A" transform="translate(0,0)"/>
<path d="" fill="#1B1B1A" transform="translate(0,0)"/>
<path d="" fill="#1B1B1A" transform="translate(0,0)"/>
<path d="" fill="#1C1C1B" transform="translate(0,0)"/>
<path d="" fill="#1D1D1B" transform="translate(0,0)"/>
<path d="" fill="#1D1D1C" transform="translate(0,0)"/>
<path d="" fill="#1D1D1B" transform="translate(0,0)"/>
<path d="" fill="#1D1D1B" transform="translate(0,0)"/>
<path d="" fill="#232220" transform="translate(0,0)"/>
<path d="" fill="#1D1D1C" transform="translate(0,0)"/>
<path d="" fill="#1D1D1C" transform="translate(0,0)"/>
<path d="" fill="#20201E" transform="translate(0,0)"/>
<path d="" fill="#1D1D1B" transform="translate(0,0)"/>
<path d="" fill="#1E1E1C" transform="translate(0,0)"/>
<path d="" fill="#1E1E1C" transform="translate(0,0)"/>
<path d="" fill="#20201F" transform="translate(0,0)"/>
<path d="" fill="#1E1E1C" transform="translate(0,0)"/>
<path d="" fill="#242423" transform="translate(0,0)"/>
<path d="" fill="#1E1E1C" transform="translate(0,0)"/>
<path d="" fill="#262625" transform="translate(0,0)"/>
<path d="" fill="#1D1D1C" transform="translate(0,0)"/>
<path d="" fill="#2D2D2B" transform="translate(0,0)"/>
<path d="" fill="#1C1C1B" transform="translate(0,0)"/>
<path d="" fill="#2F2E2E" transform="translate(0,0)"/>
<path d="" fill="#191918" transform="translate(0,0)"/>
<path d="" fill="#2A2926" transform="translate(0,0)"/>
<path d="" fill="#262524" transform="translate(0,0)"/>
<path d="" fill="#262625" transform="translate(0,0)"/>
<path d="" fill="#242320" transform="translate(0,0)"/>
<path d="" fill="#21211F" transform="translate(0,0)"/>
<path d="" fill="#242422" transform="translate(0,0)"/>
<path d="" fill="#252420" transform="translate(0,0)"/>
<path d="" fill="#282721" transform="translate(0,0)"/>
<path d="" fill="#282621" transform="translate(0,0)"/>
</svg>
